<?xml version="1.0" encoding="UTF-8" standalone="no"?>
<svg
   xmlns:dc="http://purl.org/dc/elements/1.1/"
   xmlns:cc="http://creativecommons.org/ns#"
   xmlns:rdf="http://www.w3.org/1999/02/22-rdf-syntax-ns#"
   xmlns:svg="http://www.w3.org/2000/svg"
   xmlns="http://www.w3.org/2000/svg"
   xmlns:sodipodi="http://sodipodi.sourceforge.net/DTD/sodipodi-0.dtd"
   xmlns:inkscape="http://www.inkscape.org/namespaces/inkscape"
   height="16000"
   style="stroke-linejoin: round; stroke:#000; stroke-width: 1; fill: #00F; stroke-opacity: 0.5; vector-effect: non-scaling-stroke;"
   viewBox="0 0 16000 16001"
   width="16000px"
   id="svg11402"
   version="1.1"
   inkscape:version="0.48.3.1 r9886"
   sodipodi:docname="kenya-in-world.svg">
  <title
     id="title3029">Kenya Counties (Global Context)</title>
  <metadata
     id="metadata11891">
    <rdf:RDF>
      <cc:Work
         rdf:about="">
        <dc:format>image/svg+xml</dc:format>
        <dc:type
           rdf:resource="http://purl.org/dc/dcmitype/StillImage" />
        <dc:title>Kenya Counties (Global Context)</dc:title>
        <dc:subject>
          <rdf:Bag>
            <rdf:li>Kenya</rdf:li>
            <rdf:li>counties</rdf:li>
            <rdf:li>county</rdf:li>
            <rdf:li>SVG</rdf:li>
          </rdf:Bag>
        </dc:subject>
        <dc:date>4th March 2013</dc:date>
        <dc:creator>
          <cc:Agent>
            <dc:title>Anthony Oduor</dc:title>
          </cc:Agent>
        </dc:creator>
        <dc:rights>
          <cc:Agent>
            <dc:title>Copy-left</dc:title>
          </cc:Agent>
        </dc:rights>
      </cc:Work>
    </rdf:RDF>
  </metadata>
  <defs
     id="defs11889" />
  <sodipodi:namedview
     pagecolor="#ffffff"
     bordercolor="#666666"
     borderopacity="1"
     objecttolerance="10"
     gridtolerance="10"
     guidetolerance="10"
     inkscape:pageopacity="0"
     inkscape:pageshadow="2"
     inkscape:window-width="1366"
     inkscape:window-height="713"
     id="namedview11887"
     showgrid="false"
     inkscape:zoom="1.1"
     inkscape:cx="9531.7482"
     inkscape:cy="8019.3118"
     inkscape:window-x="0"
     inkscape:window-y="26"
     inkscape:window-maximized="1"
     inkscape:current-layer="layer_0" />
  <g
     id="layer_0">
    <path
       inkscape:connector-curvature="0"
       style="fill:#fac8c9;stroke-width:1.17907524"
       d="m 9554.9789,8019.697 c 0.023,-0.3135 -0.8922,-0.4385 -1.7683,-0.39 -0.5457,0.03 -1.0731,0.5072 -1.503,0.5999 -0.748,0.1612 -0.5502,-0.3741 -0.6621,-0.3061 -0.5049,0.3064 0.3537,-0.4938 0.7656,-1.7445 0.1072,-0.3188 0.095,-0.8499 0.2061,-1.191 0.095,-0.3196 0.4513,-0.971 0.6252,-1.244 0.6405,-1.0035 1.5041,-1.9541 1.6648,-2.5795 0.2977,-1.1611 0,-1.2409 0,-1.6587 0,-0.6508 0.4549,-1.0335 1.0361,-1.4836 0.5763,-0.4455 0.4895,-2.0439 0.8443,-2.0439 0.3763,0 0.6883,0.6121 1.4694,0.845 0.861,-0.037 1.2934,0.052 2.2019,0.2967 0.9087,-0.026 1.1016,0.2544 1.7088,0.6731 0.2919,0.3027 0.6468,0.4032 0.8564,0.9186 0.7205,0.3221 0.6085,0.2737 1.2325,0.8978 0.337,0.3379 0.6228,0.3512 1.1979,0.667 0.4419,-0.1665 0.686,0.2571 1.1992,0.1471 0.4335,-0.4844 0.083,-1.4434 0.083,-1.904 0,-0.3384 -0.9514,-0.7766 -1.2242,-0.9094 -0.8752,-0.4264 -1.9041,-1.3208 -1.9982,-1.8181 -0.4358,-0.5737 -0.2977,-0.5199 -0.4072,-0.6759 -0.1584,-0.2255 -0.2619,-0.3242 0.2285,-0.4918 1.3349,0.5729 1.7196,0.4049 2.7606,0.4388 1.4503,0.047 1.1562,-0.1134 2.4555,0.019 1.0098,-0.112 0.047,0.092 1.6659,0.092 1.2505,0 1.0372,-0.6147 1.235,-0.4218 -0.1252,-1.4744 -0.059,-2.4665 0.1072,-3.5768 -0.059,-1.2665 0.4786,-1.5381 1.1753,-1.797 -0.6443,-1.3065 -0.022,-0.9357 0.6883,-1.2953 1.117,-0.1294 1.9496,0.029 3.7202,-0.3269 0.3906,0.4636 2.2651,0.063 3.8656,2.0826 0.2059,-6e-4 2.1876,1.102 1.1885,1.6343 -0.462,-0.1453 -0.5061,-0.3127 -1.3934,0.153 -0.8836,1.8238 -0.7837,1.9381 -0.7837,2.2413 0,0.3033 1.0243,-0.4799 1.7853,0.3891 0.9338,0.6886 1.3967,1.4995 0.4441,2.0661 -0.575,0.8137 0.1072,1.075 -0.6727,2.7356 -0.4632,0.436 -0.5954,0.8309 -1.3433,1.4018 -1.8327,0.8445 -2.1758,0.3775 -4.4264,-0.8204 -0.8455,0.5456 -0.6014,-0.032 -2.1686,0.2554 -1.6648,0.3061 -1.9756,-0.1751 -1.8946,0.5274 -0.4741,0.062 -0.8182,0.9459 0.059,2.1118 0,0.5507 0.686,0.085 1.4624,0.9425 1.6244,-0.2503 2.0685,-0.3598 2.0114,0.4147 -0.036,0.508 -2.1281,1.6003 -2.9104,2.3751 -0.5431,0.5373 -1.123,0.5022 -1.853,0.8866 -1.4874,0.783 -2.0734,2.1104 -2.2365,2.4432 -0.2929,0.602 -0.8657,0.2365 -1.3933,-0.088 -0.5632,-0.8268 -0.2429,-0.9628 -0.3952,-1.398 -0.1644,-0.4707 -0.3824,-1.0695 0.2011,-2.5984 -0.6896,-0.8399 0.1799,-0.2689 -1.5172,-0.453 -0.6978,0.3626 -1.242,0.5036 -1.9625,1.3464 -0.1489,0.9285 -0.1203,1.7925 -1.4658,1.8123 -0.2859,0.1974 -0.76,-0.096 -1.8911,-0.8928 -1.5137,-0.5101 -1.9186,-0.3362 -2.0936,0.3472 -0.2156,0.3312 -0.3942,0.3819 -0.399,0.112 0,-0.2695 -0.3787,-0.035 -0.8323,0.5211 -0.7778,0.9538 -1.6148,-0.2032 -1.4434,-2.0116 z"
       id="path9384"
       sodipodi:nodetypes="csscsssssssccccsccsscscscsccccccccscccccccccsssscscccccccccc"
       inkscape:label="#kericho" />
    <path
       inkscape:connector-curvature="0"
       style="fill:#f9f6c7;stroke-width:1.17907524"
       d="m 9819.4755,7903.3805 c -0.5574,-0.3186 -1.5732,-1.4679 -2.2579,-2.5538 -0.849,-1.3463 -2.0687,-2.2407 -3.8323,-2.8101 -2.5698,-0.8299 -5.2564,-3.1407 -5.2933,-4.5523 0,-0.4053 -0.5644,-1.0706 -1.2302,-1.4784 -0.6668,-0.4078 -1.2111,-0.9369 -1.2111,-1.1761 0,-0.2389 -0.6442,-1.8443 -1.4303,-3.5671 -2.5935,-5.6808 -2.8829,-6.5858 -3.1176,-9.7516 -0.331,-4.4472 -0.8383,-5.0544 -6.3412,-7.5855 -4.4266,-2.0359 -5.403,-2.8159 -9.8806,-7.8866 -5.0468,-5.7153 -7.1498,-7.1216 -14.507,-9.7025 l -2.2709,-0.7965 0,-8.3397 c 0,-7.8469 0.096,-8.5529 1.6648,-11.9527 l 1.6731,-3.6131 6.3591,-3.0425 c 3.4977,-1.6735 7.4489,-3.4787 8.7816,-4.012 1.3325,-0.5332 3.3759,-1.3718 4.5418,-1.8636 2.4662,-1.0409 2.1889,-0.9298 12.4145,-4.9671 4.3301,-1.7096 8.2124,-3.3664 8.6256,-3.6821 1.1765,-0.8956 4.7228,1.0618 6.2162,3.4307 0.7181,1.1387 1.6874,2.0706 2.1531,2.0706 0.4668,0 3.0177,2.1 5.6672,4.6668 l 4.8194,4.6669 5.3364,-0.2348 c 2.9342,-0.1291 6.6985,-0.2572 8.3633,-0.2846 1.666,-0.027 3.301,-0.2145 3.6333,-0.4161 1.2243,-0.7403 11.4799,-0.438 12.3278,0.3636 0.4608,0.4354 1.3529,0.6107 2.0327,0.3993 1.4266,-0.4439 1.5089,-0.5981 -3.1569,5.9268 -3.3212,4.6466 -4.2489,5.9306 -8.0049,11.0867 -1.0931,1.5 -4.5767,6.3082 -7.7406,10.685 -4.1012,5.6729 -7.6656,9.7473 -12.4147,14.1905 -9.6508,9.0295 -8.6611,6.4622 -8.8849,23.0557 -0.2049,15.2344 -0.2251,15.3294 -3.0285,13.7262 z"
       id="path9874"
       inkscape:label="#mandera" />
    <path
       inkscape:connector-curvature="0"
       style="fill:#b2a3a1;fill-opacity:1;stroke-width:1.17907524"
       d="m 9794.3364,7991.1744 c -0.3263,-0.1063 -1.3229,-0.3517 -2.2151,-0.5442 -0.8918,-0.1927 -2.909,-1.4716 -4.4835,-2.8417 -3.5045,-3.0516 -6.2044,-4.6831 -9.3184,-5.6327 -1.3052,-0.3981 -2.907,-1.1871 -3.5595,-1.7535 -0.6526,-0.5665 -2.2947,-1.2072 -3.65,-1.4236 -2.8486,-0.4553 -6.5497,-3.2872 -8.5861,-6.5712 -0.7406,-1.1938 -2.0649,-3.0861 -2.9437,-4.2055 -0.8777,-1.1192 -1.9246,-3.0815 -2.3258,-4.3608 -0.4012,-1.2792 -1.9339,-4.8076 -3.4048,-7.8409 -2.465,-5.083 -8.4526,-19.9059 -8.4526,-20.9258 0,-0.2424 1.6017,-1.0132 3.5595,-1.7127 3.0962,-1.1067 4.6956,-2.3725 2.9985,-2.3725 -0.3084,0 -1.7101,-1.2044 -3.1152,-2.6763 -1.404,-1.472 -3.5166,-3.0556 -4.6944,-3.5191 -1.2218,-0.4809 -2.4651,-1.5161 -2.8949,-2.4113 -2.0637,-4.2881 -3.1379,-5.892 -5.902,-8.8107 -1.6504,-1.7446 -3.0021,-3.5453 -3.0021,-4.0016 0,-0.4562 -0.5443,-1.6922 -1.2088,-2.7467 -0.9789,-1.5523 -1.2455,-3.1133 -1.4003,-8.2088 -0.1073,-3.4605 -0.4955,-7.0285 -0.8671,-7.9288 -1.1359,-2.7495 -0.8609,-3.7547 1.1433,-4.1864 2.3984,-0.5164 5.8924,-7.5813 5.8924,-11.9158 0,-2.2777 0.2096,-2.8206 1.1861,-3.071 0.6526,-0.1671 1.1861,-0.6706 1.1861,-1.1188 0,-0.448 1.1348,-1.2982 2.521,-1.8893 1.3875,-0.5912 3.3988,-1.8188 4.4705,-2.7284 1.0718,-0.9094 2.2054,-1.6539 2.5211,-1.6539 0.8848,0 0.6763,-8.1585 -0.3287,-12.8432 -0.836,-3.8966 -0.6942,-7.3521 0.2405,-5.8685 0.2191,0.3462 1.9756,0.7456 3.9036,0.8874 2.8904,0.2127 3.5868,0.4731 3.968,1.4823 0.7038,1.8659 2.1281,1.4666 3.4082,-0.956 0.6348,-1.1993 2.9081,-3.8736 5.054,-5.9431 l 3.9026,-3.7626 0,7.3328 0,7.3327 5.8089,2.4028 c 5.6696,2.3453 5.9316,2.5392 10.9415,8.1166 4.6492,5.175 5.6115,5.9388 10.2081,8.1004 4.6944,2.208 5.0742,2.5168 5.0742,4.1234 0,0.9553 0.2882,1.9117 0.6407,2.1255 0.3584,0.2167 0.4776,1.0276 0.2716,1.8342 -0.2037,0.7953 -0.1286,1.7477 0.1666,2.1171 0.2953,0.369 0.724,1.4372 0.9527,2.3735 0.7027,2.8741 3.8037,8.8935 4.7683,9.2564 0.5013,0.1886 0.9133,0.6782 0.9145,1.0881 0,1.0659 3.4476,4.5243 4.5062,4.5243 1.4755,0 4.3896,1.7186 4.3896,2.5893 0,1.1746 2.8817,3.2252 4.5323,3.2252 l 1.4077,0 -0.1524,37.8763 c -0.1501,37.1435 -0.1751,37.8889 -1.335,38.5212 -0.6491,0.3546 -1.9258,1.2231 -2.8343,1.9299 -0.9099,0.7069 -2.6329,1.4651 -3.831,1.6853 -1.5255,0.2807 -3.0033,1.2463 -4.9433,3.2285 -2.3983,2.4523 -3.1116,2.8467 -5.3683,2.9663 -1.4314,0.077 -2.9558,0.4651 -3.3869,0.8647 -0.7025,0.6515 -4.8157,0.9378 -6.3341,0.4412 z"
       id="path9478"
       inkscape:label="#wajir" />
    <path
       inkscape:connector-curvature="0"
       style="fill:#fac8c9;stroke-width:1.17907524"
       d="m 9685.7135,7939.6099 c 0,-2.2474 -0.2322,-2.6512 -2.2041,-3.9442 -2.938,-1.9261 -3.0785,-1.968 -3.0785,-0.9121 0,0.5016 -0.199,0.9252 -0.4407,0.9413 -2.5936,0.1723 -6.19,0.7018 -8.1836,1.2048 -3.214,0.8112 -2.9462,1.0608 -8.4121,-7.8448 -2.6093,-4.2486 -5.2064,-7.8692 -5.7745,-8.0456 -0.5931,-0.1845 -1.3635,-1.4229 -1.8124,-2.9148 -0.4301,-1.4266 -1.0038,-2.5939 -1.2766,-2.5939 -0.2715,0 -1.4099,-0.9238 -2.5282,-2.053 -1.697,-1.7121 -2.6247,-2.1351 -5.5876,-2.5455 -3.9596,-0.5486 -7.912,-1.5808 -7.912,-2.9599 0,-1.7647 -1.3063,-7.881 -2.1101,-8.7521 -0.449,-0.486 -1.2078,-1.813 -2.3246,-4.8219 -1.7541,-4.7282 -2.3305,-5.3244 -3.544,-7.2476 -0.6538,-1.0351 -1.2505,0.021 -0.9873,-7.2018 0.3537,-9.7598 0.555,-9.5312 -8.8815,-10.0845 -0.3858,-0.021 -0.6501,-0.3222 -0.5882,-0.6654 0.059,-0.3432 -0.3382,-0.5898 -0.8909,-0.548 -0.5536,0.041 -0.9502,-0.2055 -0.8822,-0.5499 0.071,-0.3443 -0.2467,-0.6379 -0.699,-0.6523 -0.4526,-0.014 -0.923,-0.6744 -1.0457,-1.4665 -0.5454,-3.5158 -1.4385,-5.7847 -2.1256,-5.3986 -0.3895,0.219 -0.5181,0.1926 -0.2871,-0.057 0.6205,-0.6746 -0.6645,-2.7075 -1.423,-2.2485 -0.3906,0.2374 -0.4823,0.1295 -0.2288,-0.2718 0.23,-0.366 0.1383,-0.6651 -0.2034,-0.6651 -0.343,0 -0.623,-0.4701 -0.623,-1.0446 0,-0.9761 -3.0021,-4.3396 -3.5737,-4.0048 -0.1442,0.084 0.071,-0.1359 0.4812,-0.4876 2.0566,-1.7734 0.8728,-2.5291 -3.961,-2.5291 l -4.7013,0 0,-14.5478 c 0,-8.0011 -0.1775,-18.7583 -0.3824,-23.9046 l -0.3739,-9.3571 3.1737,0.2671 c 1.7458,0.1472 7.4059,0.2601 12.579,0.2512 20.8649,-0.036 21.314,0 25.1045,1.8573 1.1991,0.5888 2.6259,1.0706 3.1689,1.0706 0.5442,0 1.7552,0.7866 2.6925,1.7479 0.9825,1.0077 2.0053,1.5786 2.415,1.348 0.3907,-0.2199 0.5143,-0.1868 0.2726,0.074 -0.6012,0.6511 3.5299,3.3221 4.3598,2.8188 0.3858,-0.2334 0.5075,-0.1499 0.2894,0.1973 -0.4905,0.7765 2.3723,2.632 3.244,2.1036 0.3822,-0.2317 0.5001,-0.144 0.2786,0.2076 -0.4882,0.7741 3.5857,3.1706 4.5086,2.6525 0.3787,-0.2129 0.4989,-0.1804 0.2655,0.073 -0.5799,0.6294 5.9293,5.0263 6.7259,4.5434 0.3527,-0.2129 0.4729,-0.1224 0.268,0.2013 -0.4823,0.765 19.7933,14.404 20.9532,14.0944 0.2656,-0.073 0.3274,0.1185 0.1369,0.4215 -0.443,0.7032 2.0221,2.4274 2.7973,1.9572 0.3203,-0.194 0.4335,-0.1154 0.25,0.1745 -1.3087,2.0762 13.4794,3.6692 18.0953,1.949 1.005,-0.3745 1.7839,-0.4045 1.9923,-0.077 0.1881,0.296 1.6647,0.6301 3.2819,0.7426 1.6161,0.1122 3.2036,0.499 3.5261,0.8591 1.4112,1.5711 8.1836,3.0886 13.2603,2.9712 3.7094,-0.085 5.5839,0.1406 7.132,0.8606 1.1551,0.5373 3.0486,1.044 4.2072,1.126 1.6614,0.1175 2.1067,0.3921 2.1103,1.3012 0,0.6338 0.3012,2.5781 0.6634,4.3211 0.362,1.7428 0.7728,5.1134 0.9121,7.4901 l 0.2537,4.321 -2.8069,1.8077 c -1.5445,0.9943 -1.9946,1.6643 -3.195,2.2056 -1.2004,0.5416 -4.1323,2.0481 -4.3216,2.6309 -0.1882,0.5828 -0.4121,1.141 -0.936,1.2406 -0.7264,0.1381 -1.3351,0.9352 -1.4077,3.35 -0.1513,5.0412 -2.6021,9.6631 -4.9527,11.1612 -2.1187,1.3503 -3.5453,1.7655 -1.9496,4.7089 0.3323,0.6136 0.9444,4.551 0.8968,8.0398 -0.084,5.7149 1.3433,8.4365 1.4599,8.8506 0.1192,0.4145 -4.6918,1.563 -5.9697,2.3255 -10.3342,6.1709 -3.5857,2.7717 -14.0772,8.2221 -7.5346,3.915 -5.7791,2.3641 -7.7536,9.4092 -0.3774,1.3476 -1.1349,2.1326 -4.7086,4.9664 -2.1947,1.7405 -5.7186,4.6963 -10.0282,7.9081 l -2.5866,1.9275 0,-2.5036 z"
       id="path9364"
       inkscape:label="#marsabit"
       sodipodi:nodetypes="csscssccssssssssccccccscccssccsccscsscsscccsscscsccsscsccscssccscscccsscscsssssccc" />
    <path
       inkscape:connector-curvature="0"
       style="fill:#acb299;fill-opacity:1;stroke-width:1.17907524"
       d="m 9707.3098,8002.4697 c -0.567,-0.1454 -1.192,-0.895 -1.3899,-1.6661 -0.1975,-0.7712 -0.5382,-1.402 -0.7572,-1.402 -0.5836,0 -2.5914,-3.4911 -2.2186,-3.8566 0.3977,-0.3905 -0.4276,-1.4494 -3.5918,-4.6029 -1.7504,-1.7458 -2.5042,-2.9869 -2.5042,-4.1247 0,-0.8948 -0.2967,-1.9178 -0.6597,-2.273 -0.3621,-0.3554 -1.7113,-3.7219 -2.9976,-7.4813 -2.8996,-8.4785 -2.1494,-8.0095 -8.4251,-5.2611 -2.9177,1.2775 -7.824,3.1579 -10.9035,4.1783 -6.0877,2.0171 -6.8772,2.9208 -5.2148,5.9652 0.7074,1.2948 0.6538,1.5199 -0.5372,2.295 -0.7263,0.4727 -1.3205,1.226 -1.3205,1.6738 0,1.2247 -1.2112,1.4227 -3.8371,0.6274 -1.4278,-0.4327 -2.3458,-1.059 -2.3198,-1.5825 0.023,-0.4766 -0.3715,-1.3498 -0.8787,-1.9403 -0.6134,-0.7148 -0.8958,-2.115 -0.8443,-4.1885 0.048,-1.9693 -0.168,-3.1178 -0.5894,-3.1238 -0.3658,0 -3.7156,-0.2843 -7.4443,-0.6201 -6.2662,-0.5646 -8.8099,-0.7674 -12.6705,-1.0107 -1.7816,-0.1121 -1.609,-1.2355 -0.059,-2.9904 0.6798,-0.7682 0.9394,-1.5746 0.9394,-2.7044 0,-1.2572 -1.1718,-2.4949 -0.699,-2.4045 1.1456,0.2196 6.3282,-0.9405 7.125,-1.5858 0.4976,-0.403 1.935,-0.1188 3.0759,0.6634 1.7481,1.1993 2.7486,0.3959 5.2446,0.638 1.0013,0.097 1.4421,0.3704 3.3533,3.8861 1.7862,3.2851 1.6375,3.5161 4.2991,3.3559 1.2016,-0.074 2.852,0.052 3.0819,0.2782 1.2754,1.2506 5.2291,-0.1551 7.8585,-2.5627 0.8656,-0.7937 1.5599,-1.433 3.3569,-1.4363 2.9212,0 4.2943,-0.9968 5.2566,-1.8718 1.0135,-0.9198 1.7125,-1.8886 1.8671,-0.7979 0.3956,0.3866 2.1055,-0.061 3.7098,-1.3486 1.9232,-1.5432 1.8838,-0.7478 2.6865,-0.2505 1.2109,0.7496 2.0553,0.1156 1.2157,-0.9129 -0.3297,-0.4049 -0.7251,-3.4074 -0.8788,-6.6726 -0.2595,-5.527 -0.406,-6.111 -2.1352,-8.471 -3.1474,-4.2959 -2.7497,-6.0963 7.5596,-13.3307 l 7.9812,-7.1762 0.9573,-4.0388 1.1982,-2.8656 5.9886,-3.244 c 3.294,-1.784 6.3878,-3.4723 6.8737,-3.7512 0.4858,-0.2793 3.5785,-2.0554 6.8713,-3.9474 6.1567,-3.5373 7.2737,-3.687 7.2737,-0.9754 0,0.6681 1.3754,2.5932 3.0938,4.3317 1.7019,1.7211 3.8906,4.7025 4.8624,6.6254 1.3564,2.6814 2.2697,3.7267 3.9214,4.4852 1.1837,0.5441 3.3821,2.1776 4.8861,3.6305 l 3.2117,2.7585 -2.8319,1.3374 c -5.2158,2.4623 -4.8943,1.1329 -3.8975,3.4703 0.4904,1.1498 0.7585,2.3009 0.5965,2.5576 -0.1619,0.2568 -0.084,0.5542 0.1822,0.6609 0.5562,0.2263 6.8368,15.4663 6.5069,15.7897 -0.1228,0.1201 -1.4101,0.7404 -2.8627,1.3788 -3.7798,1.6623 -9.4174,7.554 -9.4174,9.843 0,0.9411 -2.5306,2.3559 -4.2144,2.3559 -0.9814,0 -2.0221,0.5339 -2.7093,1.3897 -0.8372,1.0437 -1.9351,1.4901 -4.4062,1.7926 -2.6615,0.3261 -3.6535,0.7699 -5.1874,2.3205 -1.0538,1.0654 -2.1412,2.6015 -2.5972,2.4302 -2.3185,-0.262 -3.1235,0.6531 -3.7559,1.4635 0.768,0.91 1.8732,4.1923 2.8424,9.1836 0.5788,2.9838 -0.375,0.7587 -0.036,5.771 0.1251,1.8759 0.3775,4.4403 1.0754,7.2393 l 0.7312,2.713 -1.915,0.3778 -1.1766,-0.9437 c -0.7465,-0.5988 -2.4102,0.05 -3.2509,-0.5881 -1.6685,-0.079 -2.9439,-1.5121 -4.4693,0.045 -0.5776,0.7048 -2.5688,0.9624 -2.8926,0.8228 -0.085,-0.037 -0.6192,-0.1859 -1.1862,-0.3311 z"
       id="path9804"
       inkscape:label="#isiolo"
       sodipodi:nodetypes="ccsscscsscccsscsccscssccssscccsccsscssscccscsssssscsscccsssccsccsscccsccscc" />
    <path
       inkscape:connector-curvature="0"
       style="fill:#b9f4e8;stroke-width:1.17907524"
       d="m 9637.1873,8011.9952 c -1.9078,-0.5997 -2.5365,-3.1725 -1.248,-3.9535 0.011,-2.2865 -0.8373,-1.1189 -2.078,-2.5392 -0.9064,-1.0376 -2.1448,-1.0682 -4.8481,0.3492 -0.9598,0.5039 -2.0137,0.3186 -2.5507,-0.4008 -0.3763,-0.5047 -4.6325,-0.7222 -5.1517,-3.0832 0.8776,-2.4471 2.8867,-1.3642 1.7005,-4.9783 -2.8999,-0.5117 -2.5889,-0.1201 -3.7083,-2.1879 -3.7642,-2.7767 -3.0986,-0.1063 -5.4695,3.6673 -0.6027,-0.011 -4.0121,0.2943 -4.754,0.5215 -1.5171,0.4645 -0.6072,-0.4092 0.2787,-3.76 0.4084,-0.7478 0.3977,-1.5459 -0.036,-2.4748 -0.4846,-1.0434 -0.418,-1.7842 0.2786,-3.1018 0.2024,-3.2191 -0.6894,-2.4878 -2.7555,-5.6702 -1.0004,-0.9135 -0.9586,-1.1492 0.8407,-4.704 1.1884,-2.3471 1.909,-4.6765 1.9314,-6.2482 0.023,-1.9787 0.2895,-2.5805 1.2363,-2.8591 1.6731,-0.4921 4.362,-3.0657 5.7756,-5.5254 1.0789,-1.8769 1.4004,-2.0508 3.4345,-1.8608 1.2349,0.1156 4.6157,-0.3419 7.513,-1.0165 2.8975,-0.6745 5.4804,-1.2263 5.7388,-1.2263 0.2597,0 0.942,1.2081 1.5171,2.6847 0.6765,1.7369 0.8349,2.2866 1.7625,2.6329 0.5419,0.2018 1.2814,0.1211 1.5006,0.4671 0.5262,0.8311 1.0825,2.2108 -0.2501,3.9799 -0.8254,1.097 -1.8959,3.0085 -1.6482,3.2442 0.5632,0.5341 15.9741,1.4271 21.9975,1.9531 0.4942,0.011 0.3323,0.7907 0.3716,2.0177 0.1191,3.6256 0.3011,4.4345 1.3528,6.1169 0.9062,1.4493 0.3691,1.6296 -1.6065,5.8019 -1.13,1.5685 -2.5495,3.4119 -3.7511,4.6184 -1.8031,1.9135 -3.7477,2.5095 -5.2625,2.9249 -5.3196,2.2776 -4.106,2.13 -4.873,3.199 -0.5597,0.8357 -1.8375,1.4653 -1.9946,1.8969 -0.6395,1.7604 -0.9434,2.5293 0.096,4.6744 1.1647,2.4045 0.059,3.3918 -1.5005,4.5479 -1.3277,0.9841 -1.2671,1.1015 -3.8405,0.2921 z"
       id="path9482"
       inkscape:label="#laikipia"
       sodipodi:nodetypes="ccscsccccsccccsscscssccssccssccccsccc" />
    <path
       inkscape:connector-curvature="0"
       style="fill:#f2b6f0;stroke-width:1.17907524"
       d="m 9787.3497,8089.3976 c -0.1917,-0.703 -0.3537,-2.3803 -0.3572,-3.7274 0,-1.347 -0.2442,-2.5918 -0.5312,-2.7661 -0.2882,-0.1742 -0.5323,-2.3983 -0.5442,-4.9426 -0.011,-3.464 -0.3216,-5.191 -1.2171,-6.8764 -0.6573,-1.2378 -1.785,-5.5377 -2.5056,-9.5555 -0.8109,-4.5228 -1.8447,-8.2675 -2.715,-9.8323 -1.3613,-2.4495 -5.4113,-14.0393 -6.7749,-19.3872 -0.8609,-3.3787 -2.4579,-7.0125 -3.0807,-7.0125 -0.2667,0 -1.3659,-0.7575 -2.4425,-1.6834 -1.0777,-0.926 -2.4842,-1.782 -3.1248,-1.9023 -1.3004,-0.2442 -1.9649,-1.9972 -2.0542,-5.4169 -0.131,-5.0709 -10.2724,-12.6133 -16.9758,-12.6255 -2.5888,0 -3.6261,-0.1264 -5.6733,-2.0455 -2.8256,-2.6482 -6.0899,-1.8586 -10.1686,-0.1836 -2.1197,0.8707 -1.6659,-0.031 -3.014,0.034 -4.1751,0.2018 -5.2875,-2.1105 -5.3852,-7.1102 -0.036,-2.1809 0.2871,-7.2866 -0.5072,-9.6177 -2.3282,-6.8349 -2.6174,-7.5144 0.2108,-7.5144 1.067,0 2.0375,-0.612 3.064,-1.9297 1.3326,-1.7129 2.6461,-2.5631 5.9925,-2.9146 3.1629,-0.332 2.4305,-0.497 3.2022,-0.8152 1.0277,-0.424 1.9423,-2.2908 3.2141,-2.2554 2.3769,0.066 3.6404,-0.5958 5.4064,-3.8521 1.9888,-3.6654 5.5994,-6.9647 8.8183,-8.396 4.2073,-1.8711 3.5061,-1.3831 6.4128,6.7108 0.6051,1.6812 1.9865,4.2325 3.0725,5.6695 1.0847,1.4369 2.777,3.6952 3.7584,5.019 2.097,2.8268 4.5133,4.4093 7.5844,4.9673 1.2171,0.2213 2.5247,0.7684 2.9033,1.2159 0.3789,0.4475 2.021,1.2015 3.6501,1.6757 3.5916,1.0454 6.1446,2.5429 8.5217,4.9981 3.6572,3.7779 13.1412,6.2219 15.1107,3.8943 0.4265,-0.5035 1.1303,-0.782 1.5637,-0.619 1.5683,0.5901 5.5399,-0.9417 6.6164,-2.5514 1.4886,-2.2276 3.2391,-3.5145 5.3267,-3.9179 0.9836,-0.19 2.9688,-1.1297 4.412,-2.0884 1.4434,-0.9585 2.8523,-1.7428 3.1309,-1.7428 0.6133,0 0.7312,14.0467 0.4574,54.5055 -0.011,2.4204 0.3382,3.2474 2.6973,6.2886 1.4944,1.9259 2.7174,3.6678 2.7174,3.8706 0,0.2028 1.1564,1.7119 2.5699,3.3538 6.8022,7.8992 17.7008,22.6969 17.7008,24.0328 0,1.7739 0.6193,1.6553 -16.1097,3.0842 l -13.427,1.1467 -8.4754,4.1618 c -4.6622,2.2889 -8.7539,4.1617 -9.0934,4.1617 -0.3393,0 -2.9581,1.0772 -5.8208,2.3937 -7.8669,3.6182 -7.7121,3.5783 -8.1169,2.0987 z"
       id="path9698"
       inkscape:label="#garissa"
       sodipodi:nodetypes="cccssssssscscsssssscsssssccsssssscccsscssssscssscc" />
    <path
       inkscape:connector-curvature="0"
       style="fill:#b2a3a1;fill-opacity:1;stroke-width:1.17907524"
       d="m 9803.1405,8107.8468 c -2.8164,-0.995 -5.5554,-1.4976 -8.5731,-1.5733 -3.9596,-0.099 -4.4431,-0.234 -4.5049,-1.2569 -0.2001,-3.301 -0.8111,-7.8423 -1.3934,-10.3723 -0.686,-2.9788 -0.4429,-4.7216 0.5717,-4.1066 0.3274,0.1984 0.5954,0.086 0.5954,-0.2531 0,-0.3377 0.3406,-0.6138 0.7561,-0.6138 0.4156,0 2.2781,-0.7744 4.1383,-1.7209 1.8612,-0.9464 3.3843,-1.5665 3.3843,-1.378 0,0.1887 0.3323,0.084 0.7397,-0.2334 0.4061,-0.3167 1.2039,-0.5023 1.7732,-0.412 0.5692,0.091 1.0347,-0.038 1.0347,-0.2869 0,-0.5371 5.8889,-3.1678 6.9415,-3.1012 0.4038,0.025 0.6122,-0.1448 0.4645,-0.3785 -0.1465,-0.2337 1.098,-1.0519 2.7675,-1.8183 1.6696,-0.7664 3.082,-1.2629 3.1404,-1.1035 0.059,0.1593 0.5442,-0.067 1.0825,-0.5057 0.5381,-0.4374 0.9775,-0.5833 0.9775,-0.3239 0,0.2594 0.3324,0.036 0.7396,-0.4963 0.8695,-1.1388 7.2845,-1.8657 7.8966,-0.8949 0.2538,0.4025 0.5336,0.3649 0.8349,-0.1119 0.2702,-0.429 2.0851,-0.7831 4.5085,-0.8796 2.2305,-0.089 4.056,-0.2144 4.056,-0.2788 0,-0.065 0.7981,-0.1898 1.7732,-0.2783 0.9766,-0.089 3.431,-0.324 5.4553,-0.5235 3.1344,-0.3088 3.6299,-0.2328 3.3381,0.5129 -0.1883,0.4817 -0.6479,0.7047 -1.0206,0.4962 -0.3716,-0.2087 -0.4848,-0.1714 -0.2502,0.083 0.455,0.4938 -0.7108,2.244 -3.6748,5.5198 -1.0087,1.1158 -2.2782,2.7458 -2.8212,3.6224 -1.1623,1.879 -1.5814,1.962 -2.6186,0.5179 -1.2898,-1.7967 -2.9915,-1.9667 -4.6445,-0.4641 -0.8169,0.7426 -2.1769,1.5203 -3.0211,1.7282 -0.8444,0.2079 -1.9745,1.033 -2.5092,1.8336 -1.3517,2.0229 -2.1066,1.8174 -2.016,-0.5491 0.048,-1.3241 0.5547,-2.4122 1.4849,-3.2046 1.2586,-1.0726 1.4064,-2.3252 0.2739,-2.3252 -1.1801,0 -4.2371,3.5462 -4.2371,4.9143 0,1.6988 -0.9134,1.4642 -3.4617,-0.8896 -1.0374,-0.9571 -1.5101,-1.1017 -1.8483,-0.5651 -0.3227,0.5124 -0.5717,0.5356 -0.8599,0.081 -0.5179,-0.8218 -2.1077,-0.8371 -2.1077,-0.02 0,0.8306 1.5159,2.2771 2.3864,2.2771 0.3823,0 0.549,0.3778 0.3681,0.8397 -0.2014,0.5123 0.1321,0.9833 0.8549,1.208 0.9397,0.2924 1.0408,0.5359 0.4931,1.1829 -0.5502,0.6501 -0.4216,0.9125 0.6395,1.2968 2.6139,0.9482 1.9578,4.6543 -0.7515,4.2351 -0.2429,-0.037 -0.3762,0.2278 -0.2954,0.5901 0.2108,0.9406 -2.9616,1.6841 -4.5918,1.0764 -1.1957,-0.4455 -1.4552,-0.2874 -1.9889,1.2109 -0.7525,2.1157 -0.307,3.4295 1.1635,3.4295 1.2326,0 2.1293,2.3503 1.3683,3.5895 -0.3191,0.52 -0.1071,0.488 0.6836,-0.1018 1.1124,-0.8329 1.1158,-0.8224 0.1073,0.3381 -0.5706,0.6586 -1.3683,1.2081 -1.7733,1.2213 -0.4062,0.012 -1.4028,0.1717 -2.2151,0.3525 -0.8728,0.1937 -3.1759,-0.2711 -5.6184,-1.1337 z"
       id="path9742"
       inkscape:label="#lamu" />
    <path
       inkscape:connector-curvature="0"
       style="fill:#b5bb00;fill-opacity:1;stroke-width:1.17907524"
       d="m 9741.5386,8134.3514 c -1.0885,-0.2519 -2.1758,-0.7691 -2.4162,-1.1492 -0.3133,-0.4971 -0.7528,-0.5247 -1.5649,-0.098 -0.9931,0.521 -1.6194,-0.066 -5.2016,-4.8784 -2.24,-3.0091 -6.1056,-8.1599 -8.591,-11.4463 -2.4852,-3.2863 -4.4096,-5.9752 -4.275,-5.9752 0.1334,0 -0.4644,-0.6936 -1.329,-1.5413 l -1.5719,-1.5414 1.7445,-0.4575 c 0.9597,-0.2518 3.026,-1.1561 3.4023,-1.6602 2.8819,-1.5516 3.7595,-4.2942 7.6655,-11.7736 1.4707,-2.8164 2.7353,-5.5823 3.637,-8.7836 0.2417,-1.2323 -0.048,-3.3467 -0.8051,-5.8947 -0.9504,-3.1933 -0.643,-3.1977 -0.023,-3.5382 0.7895,-0.4366 0.5585,-5.7082 0.3858,-10.7603 -0.2085,5e-4 -0.399,-1.3556 -0.4239,-3.014 -0.096,-6.1696 -1.4125,-14.9347 -1.9542,-16.5468 -1.7041,-4.4867 -0.9527,-2.1201 -2.7128,-6.0938 -3.0426,-6.2718 -7.5751,-12.8704 -11.2084,-19.5836 -0.8038,-1.5552 -0.9621,-1.9803 -1.7779,-3.1595 -1.6493,-2.4378 -4.018,-7.4775 -6.9523,-13.1262 0.5633,0.5001 4.137,-0.3657 4.7849,-1.4496 0.3514,-0.5889 0.7586,-0.6367 1.6112,-0.1892 0.6277,0.3291 1.1409,0.4282 1.1409,0.2206 0,-0.2076 0.4015,-0.05 0.8931,0.3488 0.4907,0.3995 1.0635,0.5597 1.2719,0.3554 0.2072,-0.2039 0.9264,-0.046 1.597,0.3504 1.08,0.6391 1.7649,0.7384 3.4368,0.4977 0.2524,-0.036 0.1691,-0.5983 -0.1858,-1.2482 -0.6038,-1.1068 -0.5217,-1.1596 1.2981,-0.8312 4.1464,0.7484 5.5351,0.6837 7.6334,-0.3559 2.8783,-1.4262 5.8471,-1.3949 7.2058,0.076 1.685,1.8254 4.3442,2.8674 7.3165,2.8674 5.895,0 15.7908,7.4443 15.7279,11.8316 -0.048,3.1162 1.4254,6.2689 2.8865,6.1923 0.7218,-0.037 1.3124,0.1647 1.3124,0.4502 0,0.2855 0.9301,1.0567 2.066,1.7138 2.5019,1.4465 2.9664,2.2469 4.3907,7.5551 1.8065,6.7348 5.2874,16.6006 6.7259,19.068 0.7373,1.2638 1.5506,3.5898 1.8078,5.1694 0.2573,1.5796 0.5537,3.2596 0.6574,3.7334 0.405,1.8396 0.8253,4.9348 0.8182,6.0238 0,0.6279 0.6037,2.1787 1.3504,3.4462 1.3611,2.3133 2.4853,8.3354 1.5552,8.3354 -0.4573,0 -0.036,2.5474 0.7503,4.595 0.1821,0.4738 0.4668,2.4124 0.6323,4.3078 0.1643,1.8954 0.587,4.4799 0.9396,5.7437 0.3525,1.2636 0.7396,4.7142 0.8609,7.6678 0.2656,6.4701 1.1432,6.4498 7.0607,6.6015 3.0402,0.079 5.1171,0.6102 7.837,1.423 2.7855,0.8327 4.124,1.5567 5.422,1.1461 3.8179,-0.2905 1.641,0.072 -1.0599,2.4216 -1.6066,1.4477 -3.7679,1.4403 -5.4839,-0.018 -1.4529,-1.2348 -2.0316,-1.4737 -1.4899,-0.6141 0.2931,0.4644 -0.5726,1.3681 -1.4396,1.504 -2.6997,0.4229 -6.0758,2.1612 -8.4621,4.3584 l -2.9249,2.6915 -3.0402,-4.1135 c -1.6721,-2.2624 -2.9712,-4.1851 -2.8857,-4.2724 0.085,-0.088 -0.8644,-1.2505 -2.1112,-2.5847 -1.2468,-1.334 -2.4222,-2.9034 -2.6128,-3.4875 -0.3191,-0.9787 -2.2756,-3.2459 -2.8009,-3.2459 -0.2678,0 -6.6055,6.9765 -17.6461,19.4251 -4.2573,4.8004 -5.3802,5.837 -5.8625,5.409 -0.2632,-0.2329 -0.287,-0.098 -0.059,0.2985 0.2476,0.4218 0.048,0.8654 -0.492,1.0666 -0.5037,0.1896 -0.9169,0.5777 -0.9169,0.8624 0,0.2849 -0.6395,1.2265 -1.423,2.0926 -0.7826,0.8658 -1.934,2.156 -2.5593,2.8667 -0.6239,0.7109 -1.2359,1.266 -1.3598,1.2337 -0.1228,-0.033 -1.1146,-0.2651 -2.2043,-0.5171 z"
       id="path9704"
       inkscape:label="#tanariver"
       sodipodi:nodetypes="cccsssscccscsscccccccccsccsccsssscsssssccccscscscsccccsscscsssscccsccscc" />
    <path
       inkscape:connector-curvature="0"
       style="fill:#e5fabc;stroke-width:1.17907524"
       d="m 9756.5243,8171.0609 c -0.9824,-1.2858 -2.2197,-2.3026 -2.7497,-2.2597 -0.5298,0.043 -0.8288,-0.1362 -0.6645,-0.398 0.1655,-0.2618 -0.2287,-0.7538 -0.8765,-1.0933 -0.7609,-0.3991 -1.1765,-1.192 -1.1765,-2.2429 0,-0.894 -0.3703,-1.7645 -0.8217,-1.9346 -0.543,-0.2041 -0.8228,-1.1892 -0.8228,-2.898 0,-3.7975 -0.7992,-4.3086 -6.7392,-4.3086 l -4.9849,0 0.3822,-1.5641 c 0.2097,-0.8604 0.5646,-1.9482 0.7884,-2.4173 0.2239,-0.4693 1.298,-4.5003 2.3865,-8.9575 1.0873,-4.4574 2.2233,-8.0245 2.5234,-7.9268 0.3002,0.098 2.8688,-2.3983 5.709,-5.5464 2.839,-3.148 5.727,-6.2539 6.4176,-6.9018 0.6894,-0.648 1.516,-1.5971 1.835,-2.1092 1.4065,-2.2564 15.742,-17.9685 16.4267,-18.0033 0.4182,-0.02 0.5979,0.2175 0.4014,0.5304 -0.1977,0.3129 -0.1309,0.5687 0.1478,0.5687 0.4547,0 2.952,3.1955 9.6875,12.3942 1.211,1.6553 1.8945,2.9349 1.5172,2.8439 -0.3775,-0.092 -1.0302,0.7898 -1.4506,1.9573 -0.4203,1.1675 -0.5537,1.9952 -0.2965,1.8392 0.8776,-0.5312 1.1397,0.7724 0.4811,2.3888 -1.3993,3.4333 -0.7074,8.3543 0.9801,6.9809 0.6931,-0.5636 0.6182,-0.2012 -0.287,1.3777 -0.6752,1.1785 -1.0694,2.3934 -0.8766,2.6998 0.1931,0.3064 -0.059,1.1768 -0.5691,1.934 -0.5061,0.7573 -0.9205,2.2422 -0.9205,3.2995 0,1.9206 -1.2004,3.5369 -2.8999,3.9027 -0.4774,0.1029 -1.2146,0.571 -1.6385,1.04 -0.6645,0.7369 -0.7324,0.6787 -0.4918,-0.4265 0.3537,-1.6188 -0.9825,-1.717 -2.3329,-0.1713 -0.5324,0.6096 -1.248,0.9521 -1.5898,0.7614 -0.3418,-0.1909 -0.036,0.2845 0.6799,1.0565 l 1.3005,1.4034 -2.0078,4.7369 c -2.3102,5.4507 -2.4103,5.5912 -3.3308,4.6882 -1.0563,-1.0356 -2.7759,-0.8183 -2.7759,0.3508 0,0.5631 -0.262,1.2807 -0.5822,1.5947 -0.3896,0.3819 -0.3002,0.937 0.2714,1.6779 0.7003,0.9078 0.8573,0.9439 0.8728,0.1997 0.036,-2.0012 2.6284,-3.3748 3.0903,-1.6409 0.2953,1.1038 -0.083,2.398 -2.6281,8.9468 -1.0754,2.7723 -3.9251,4.5268 -3.9251,2.4174 0,-0.907 -2.9034,-0.6575 -3.2712,0.2811 -0.1824,0.4674 -0.5609,0.7115 -0.8396,0.5423 -0.2798,-0.169 -0.9707,-0.076 -1.5351,0.2081 -0.8228,0.4122 -1.3849,0.047 -2.814,-1.8221 z"
       id="path9870"
       inkscape:label="#kilifi" />
    <path
       inkscape:connector-curvature="0"
       style="fill:#b9f4e8;stroke-width:1.17907524"
       d="m 9737.9029,8203.5318 c -2.1673,-1.5579 -9.7698,-6.7485 -16.8947,-11.5344 -11.8682,-7.9728 -12.8327,-8.75 -11.5215,-9.2801 0.787,-0.318 5.66,-2.1048 10.8309,-3.9706 10.9439,-3.9499 10.2686,-3.4657 12.6313,-9.0508 l 1.8423,-4.3529 -2.0828,-1.2041 c -3.3833,-1.9564 -2.4723,-4.3076 0.9884,-2.5533 2.2208,1.1259 2.0756,1.2204 2.783,-1.8026 l 0.5561,-2.3778 5.2518,-0.1713 c 6.128,-0.1998 6.5317,0.083 6.5317,4.587 0,0.9574 0.4085,2.1421 0.9099,2.6327 0.5002,0.4906 0.8419,1.5092 0.7573,2.2633 -0.1071,0.9368 0.281,1.5598 1.2123,1.9662 0.7514,0.3272 1.3647,0.7991 1.3647,1.0484 0,0.2494 0.3871,0.4534 0.8598,0.4534 1.0362,0 3.7144,4.0495 3.0689,4.638 -0.2513,0.2281 -0.5776,0.082 -0.7265,-0.3285 -0.5668,-1.5557 -1.3801,-0.6497 -1.3349,1.4861 0.024,1.2259 0.1846,1.8967 0.3525,1.4908 0.4562,-1.1084 2.7533,0.2772 2.5104,1.5145 -0.2847,1.4433 1.7565,3.2248 3.1843,2.7805 1.3218,-0.4112 1.6494,1.2499 0.6181,3.1384 -0.3096,0.5676 -1.1777,2.9714 -1.9292,5.3415 -0.7515,2.3701 -1.6577,4.3163 -2.0137,4.3249 -0.356,0.011 -1.148,1.0783 -1.7589,2.3776 -0.7312,1.5535 -1.5088,2.3622 -2.2746,2.3622 -0.6395,0 -1.1623,0.4013 -1.1623,0.8916 0,0.4917 -0.537,0.8917 -1.1979,0.8917 -1.0351,0 -1.1172,0.207 -0.6063,1.5248 0.9682,2.4968 0.7551,3.0963 -0.9847,2.7704 -1.3838,-0.2595 -1.5316,-0.5095 -1.2136,-2.0672 0.3311,-1.6233 0.2478,-1.7368 -1.0014,-1.3543 -0.7504,0.2298 -1.8256,0.4123 -2.3902,0.4059 -0.5977,-0.011 -0.9002,0.3121 -0.7227,0.7637 0.1668,0.4263 -0.1215,0.935 -0.6419,1.1306 -0.5192,0.1953 -0.9443,0.7648 -0.9443,1.2654 0,1.3316 -0.499,1.1255 -4.8516,-2.0017 z"
       id="path9534" />
    <path
       inkscape:connector-curvature="0"
       style="fill:#01a2a6;fill-opacity:1;stroke-width:1.17907524"
       d="m 9709.1782,8132.651 c 0.5157,-0.5061 -0.7764,-2.5448 -1.6136,-2.5448 -0.4074,0 -2.1853,-1.8567 -3.9512,-4.1262 -1.7661,-2.2693 -4.149,-4.6946 -5.2958,-5.3893 l -2.0852,-1.2631 -3.6976,1.8863 c -4.804,2.4505 -6.5617,2.7828 -6.5617,1.2406 0,-0.6352 -0.3655,-1.513 -0.8121,-1.9512 -1.0479,-1.0275 -4.311,-6.0856 -3.9775,-6.1663 0.3858,-0.094 -0.9217,-0.9624 -3.4571,-3.038 -1.3586,-1.1869 -1.7671,-1.8101 -2.6592,-3.0711 -1.355,-1.2368 -1.7433,-1.9783 -2.3994,-2.562 -1.3006,-1.283 -1.2922,-1.5846 -1.8996,-2.2436 -1.0013,-1.0846 0.3346,-1.1583 1.7732,-2.0167 1.0945,-1.0147 1.2195,-1.291 1.2957,-1.8947 0.07,-0.5628 -0.4596,-0.3606 0.1192,-0.9863 0.6596,-0.7143 1.8327,-2.145 0.9919,-2.0423 -0.8217,0.1007 -2.7747,0.028 -3.8549,-0.073 -0.731,-0.068 -0.2572,-1.1158 -0.9728,-0.9875 -1.0552,-0.4468 -1.51,-0.4088 -2.4842,-1.0609 -1.1563,-0.7739 -1.9566,-1.302 -3.0997,-1.6839 -0.5478,-0.9637 -0.8884,0.1885 -1.6351,-0.5485 -0.7348,-0.726 -2.0197,-1.7473 -3.5129,-2.1708 -0.8397,-0.2381 -2.152,-0.9272 -2.3831,-0.9272 -0.3894,0 -1.1027,-0.078 -1.5326,-0.5953 -0.3262,-0.3941 0.036,-0.483 -0.7359,-1.5989 -0.7491,-1.0851 -2.0828,-1.7782 -2.6521,-1.7782 -1.1312,0 -2.5925,-1.3851 -2.0363,-1.9301 0.1904,-0.1865 0.071,-0.8357 -0.2573,-1.4425 -0.7157,-1.3111 0.1262,-3.1474 1.4422,-3.1474 0.4895,0 0.9014,-0.5887 0.9323,-1.3336 0.1846,-4.4187 0.2977,-4.878 1.2554,-5.0613 0.624,-0.1196 1.3182,0.4415 1.8184,1.4708 0.9037,1.8562 3.2437,2.4658 5.3076,1.3827 l 0.8549,-1.2178 -0.7561,-1.9391 c -0.5906,-1.5167 -1.0409,-2.2669 -0.6598,-2.4977 0.8741,-1.966 6.4784,-1.8972 8.2181,-0.8243 0.4324,0.3511 1.0421,0.4825 1.3577,0.2918 0.3145,-0.1906 1.142,0.6023 1.8409,1.7619 1.2064,2.0042 2.4771,2.3005 2.4771,0.5777 0,-0.507 0.4418,-0.6854 1.2098,-0.4887 0.6765,0.1732 1.2089,0.017 1.2089,-0.3519 0,-0.3639 0.6132,-0.2047 1.0288,-0.1909 1.0312,0.034 4.0787,6.2837 3.6309,7.4265 -0.1976,0.5049 0.2203,1.639 0.9277,2.5207 1.6399,2.0438 3.1689,3.0201 2.3555,3.9808 0.4561,1.4107 0.518,1.2885 0.9515,3.6493 l 0.5443,2.6973 c 0.6883,1.5436 0.7586,2.3402 0.2738,3.1119 -0.4215,0.6701 -0.4359,1.0373 -0.036,1.0373 0.3347,0 0.6098,0.4102 0.6098,0.9114 0,0.6405 0.4942,0.8609 1.6611,0.741 1.3744,-0.1412 1.8412,0.188 2.6998,1.904 1.5874,3.17 3.345,5.1279 5.3291,5.9331 0.9895,0.4018 1.7993,0.9773 1.7993,1.2785 0,0.3012 0.7158,1.2489 1.59,2.106 2.4507,2.4022 8.1475,14.3879 8.424,17.7241 0.085,1.018 0.8788,2.9769 1.7647,4.3534 1.6387,2.5435 1.628,3.1082 -0.059,3.3512 -0.5204,0.075 -0.7942,-0.012 -0.6084,-0.1939 z"
       id="path9356"
       inkscape:label="#makueni"
       sodipodi:nodetypes="cssccsscccccccscsscscssssssccssssscscccsscscssccccssssssscsccc" />
    <path
       inkscape:connector-curvature="0"
       style="fill:#c9d5fa;stroke-width:1.17907524"
       d="m 9702.2294,8177.6954 c -3.3808,-2.3087 -6.4281,-4.0272 -6.771,-3.819 -0.3443,0.2082 -0.4668,0.1266 -0.2728,-0.1814 0.1954,-0.3079 -3.1403,-2.9043 -7.4106,-5.7696 -7.5598,-5.0723 -8.879,-6.4031 -9.7056,-9.7822 -0.4512,-1.8503 -3.3511,-3.4118 -5.4911,-2.9574 -1.074,0.2278 -1.2824,0.162 -0.718,-0.227 0.9848,-0.6788 0.2584,-1.9975 -0.8671,-1.5743 -1.1967,0.4504 -0.1975,-1.1019 2.6998,-4.1906 2.2604,-2.4089 2.371,-2.6891 2.0709,-5.2318 l -0.3169,-2.6866 1.8482,-0.1039 c 1.0161,-0.056 2.5617,-0.055 3.4346,0 1.4814,0.098 1.5874,-0.043 1.5874,-2.1254 0,-1.2273 0.2227,-2.3664 0.4953,-2.5315 0.2729,-0.1652 0.667,-1.9426 0.8777,-3.9499 0.2097,-2.0071 0.7634,-4.3687 1.2314,-5.2476 0.4679,-0.879 0.8515,-2.0587 0.854,-2.6214 0,-0.5627 0.095,-1.3628 0.4155,-1.1693 0.3192,0.1935 2.4923,-0.056 4.6216,-1.1653 5.546,-2.8864 6.5832,-2.5423 11.4288,3.7914 1.4838,1.9391 3.1247,3.7605 3.6474,4.0477 0.5241,0.2871 1.2804,0.9725 1.6828,1.5232 0.5383,0.7374 1.4601,0.9847 3.5011,0.939 1.9268,-0.043 3.5036,0.3422 5.1767,1.2642 1.3242,0.7292 2.5639,1.1724 2.7545,0.9851 0.1917,-0.1874 1.5004,-6e-4 2.9092,0.4148 1.6566,0.4885 3.2176,0.5917 4.4193,0.2921 3.5333,-0.8814 8.9565,-1.2071 9.3624,-0.5625 0.2787,0.4419 0.6074,0.4373 1.166,-0.016 0.5764,-0.4692 1.1218,-0.4458 2.1126,0.092 0.7335,0.3979 1.6553,0.6598 2.0458,0.5823 0.9123,-0.1811 0.6585,1.1839 -2.2924,12.347 -1.2753,4.8216 -2.5664,9.8483 -2.8676,11.1705 -0.6251,2.7347 -0.537,2.6843 -2.7354,1.5696 -1.5694,-0.7956 -1.6922,-0.7646 -2.6484,0.6662 -1.0765,1.609 -0.8193,2.0365 2.3161,3.8495 1.0469,0.6058 -1.1336,7.4006 -2.7746,8.6485 -0.6705,0.509 -17.1746,6.6584 -20.1005,7.4888 -1.3219,0.3753 -2.4091,-0.1567 -7.6871,-3.7604 z"
       id="path9762"
       inkscape:label="#taitataveta"
       sodipodi:nodetypes="csssssscsscccscssccsscscsscsccccssscscscc" />
    <path
       inkscape:connector-curvature="0"
       style="fill:#f9cab5;stroke-width:1.17907524"
       d="m 9721.8621,8133.9369 c -1.9221,-0.3637 -4.2799,-0.9892 -5.2412,-1.3902 -0.9609,-0.4009 -2.4827,-0.8739 -3.3818,-1.0509 -1.8078,-0.3556 -5.0469,-5.1112 -5.0564,-7.4239 0,-0.6957 -0.3775,-2.1084 -0.8312,-3.1394 -0.4551,-1.031 -1.3374,-3.0302 -1.9626,-4.443 -0.6252,-1.4126 -1.3327,-3.2106 -1.5719,-3.9954 -0.2395,-0.7849 -0.7669,-1.8122 -1.1718,-2.2831 -0.4049,-0.4709 -0.9158,-1.4342 -1.135,-2.1404 -0.2189,-0.7063 -0.768,-1.2843 -1.2182,-1.2843 -0.4513,0 -1.2147,-0.7492 -1.6982,-1.6648 -0.562,-1.0667 -1.5088,-1.8008 -2.6353,-2.0431 -0.9658,-0.2082 -1.7565,-0.7305 -1.7565,-1.1607 0,-0.4304 -0.343,-0.9878 -0.7621,-1.239 -0.4193,-0.2511 -1.1278,-1.3554 -1.5744,-2.4542 -0.954,-2.3448 -2.1376,-3.3651 -3.5,-3.0159 -0.7942,0.2034 -1.0467,-0.3088 -1.3361,-2.708 -0.1966,-1.6273 -0.6169,-3.2647 -0.9336,-3.6387 -0.3168,-0.3737 -0.7002,-1.5668 -0.8516,-2.6507 -0.4511,-3.2182 -1.074,-4.7791 -2.2292,-5.5867 -0.6883,-0.4814 -0.9633,-1.1511 -0.7467,-1.8183 0.3967,-1.2249 -2.3839,-6.9325 -4.6788,-9.6066 -1.4148,-1.6477 -1.4481,-1.7973 -0.405,-1.7973 4.1598,0 5.4364,-5.5965 1.6601,-7.283 -0.6882,-0.3077 -1.629,-1.2991 -2.09,-2.2033 -1.8659,-3.6641 -3.8642,-6.4799 -4.8265,-6.8023 -0.5609,-0.1875 -1.0192,-0.7091 -1.0192,-1.1588 0,-1.116 5.1397,-1.0724 6.6628,0.055 0.6216,0.461 1.3206,0.838 1.5528,0.838 0.5597,0 3.1748,-4.1514 2.982,-4.7322 0.4452,-2.0293 0.5835,-3.1232 -0.059,-4.1534 -1.0895,-1.7656 -0.4214,-4.3086 0.6445,-5.1946 1.0311,-0.8585 2.4054,-3.7882 1.9243,-5.2722 -0.2347,-0.7233 -0.3976,-2.3674 0.011,-2.8531 0.5681,-0.6712 0.7135,-0.7605 -0.048,-1.5863 -1.5816,-1.7135 -0.6574,-4.3717 2.0863,-7.0608 0.6229,-0.6111 1.1373,-1.6892 1.1409,-2.3954 0.023,-3.2366 0.5584,-3.8529 3.363,-3.8529 1.6136,0 3.0557,-0.3574 3.682,-0.9132 0.5657,-0.5023 1.9805,-0.9132 3.1439,-0.9132 2.371,0 2.9235,-0.734 2.09,-2.7771 -0.8908,-1.3047 0.4824,-2.4688 1.1158,-2.86 2.5056,-0.6708 0.5728,0.011 2.1389,-0.7621 0.3858,-0.3787 0.343,-2.0905 1.9076,-1.8561 0.8598,0.1289 1.2182,-0.2135 1.8579,0.2657 1.3969,1.0477 2.9127,5.8196 9.2267,16.6062 0.4811,0.8207 2.3792,3.9616 4.2192,6.9799 6.8868,11.3011 10.4307,19.3761 10.6748,24.3313 0.1203,2.4322 0.5216,8.4783 0.8919,13.436 0.6121,8.1808 0.5859,9.0781 -0.2834,9.7034 -0.8765,0.6303 -0.8836,0.9715 -0.084,3.9989 1.5516,5.8348 1.3027,6.98 -3.6237,16.6629 -3.1773,6.2445 -4.7981,8.8519 -5.4995,8.8519 -0.5466,0 -1.3873,0.5498 -1.8672,1.2219 -0.543,0.7597 -1.547,1.2454 -2.6521,1.2841 -2.5818,0.092 -2.9319,-0.5448 6.9522,12.6183 3.6834,4.9049 7.4167,9.9074 8.2955,11.1167 l 1.5982,2.1988 -2.4721,0.4023 c -1.3588,0.2214 -2.9952,0.5137 -3.6358,0.6497 -2.7198,0.5776 -3.6726,0.5696 -6.9881,-0.058 z"
       id="path9294"
       inkscape:label="#kitui"
       sodipodi:nodetypes="ccscsssccsccsccsscsscsscscscsccsscsscscscccsssssscsssscsscsscc" />
    <path
       inkscape:connector-curvature="0"
       style="fill:#01a2a6;fill-opacity:1;stroke-width:1.17907524"
       d="m 9671.3303,8009.4446 c -0.5073,-0.3209 -2.8771,-0.9949 -4.3965,-1.0121 -7.356,-0.084 -10.7558,-2.2966 -15.1919,-4.5978 l -4.3323,-2.2483 -1.8279,-2.3882 c 2.4685,-0.6146 4.2132,-1.307 5.479,-2.0838 1.3254,-0.4675 1.8339,-0.7124 2.951,-1.7967 0.7014,-0.681 1.6445,-1.3261 3.5581,-4.0641 1.6829,-2.4072 1.7865,-2.5904 2.4796,-4.0195 0.3477,-0.7177 0.036,-1.6734 0.7894,-1.2776 1.9948,1.0462 5.5852,1.5603 5.9806,0.726 0.25,-0.5283 0.4061,-1.2182 0.929,-1.821 0.9476,-1.0942 2.041,-0.6752 1.1525,-2.8745 l -0.9097,-2.2546 1.0563,-1.7173 7.456,-2.7048 c 3.8821,-1.4079 8.2656,-3.168 10.1222,-4.0184 4.2336,-1.9379 4.0013,-1.7408 6.6272,6.2521 1.2206,3.7125 2.4746,7.0074 2.7877,7.3219 0.3121,0.3144 0.5681,1.6094 0.5681,2.8777 2.0007,3.1411 5.7244,5.8075 5.5233,7.3692 0.6215,1.3324 1.7862,3.3704 2.5888,4.529 2.4923,3.5997 2.496,3.6113 1.0991,3.6113 -2.0005,-0.2655 -2.3363,-0.7918 -3.3129,-1.3137 -2.0316,-1.089 -1.6136,-1.5975 -3.0557,-2.0013 -2.1483,-0.6012 -2.3222,-1.3083 -3.0831,-1.5448 -1.6231,-0.5045 -2.4556,1.1232 -3.8954,0.9476 -0.6014,-0.074 -1.1468,-0.9415 -1.4229,-1.0729 -1.3648,-0.6482 -0.3527,-0.4915 -1.5078,-0.6516 -1.9327,-0.2678 -2.1827,1.7062 -2.7104,2.021 -0.6061,0.3617 -0.9252,-0.1251 -1.2135,0.083 -1.092,2.5188 -0.9872,0.5214 -1.9397,1.9727 -0.3836,3.2664 -0.5634,4.1496 -1.1172,4.7141 -0.8752,0.8925 -3.4403,2.4299 -4.5811,2.0009 -1.7507,0.7524 -2.6055,1.5769 -3.5084,1.8101 -2.4329,0.6279 -2.7413,-0.6118 -3.1415,-0.7721 z"
       id="path9714"
       inkscape:label="#meru"
       sodipodi:nodetypes="csscccssscsssccssssccsccssssssccscscc" />
    <path
       inkscape:connector-curvature="0"
       style="fill:#acb299;fill-opacity:1;stroke-width:1.17907524"
       d="m 9644.7885,8027.2417 c -2.5544,-1.3913 -3.0533,-1.4766 -4.8657,-0.8341 -2.6642,0.944 -4.1633,0.9032 -5.5864,-0.1516 -1.3386,-0.9923 -4.8337,-1.196 -5.3898,-0.3143 -0.8074,1.2792 -1.3814,0.4377 -2.0817,-3.0489 -0.4013,-2.002 -1.1456,-4.262 -1.6539,-5.0224 -0.5932,-2.8686 -0.6384,-2.5559 -0.9814,-4.3923 0.9395,-1.6286 2.664,-4.4208 3.3297,-6.1783 -0.1275,-0.6729 3.2069,-2.0387 4.9764,-2.0387 1.7482,0 3.4227,2.2547 2.614,3.5229 -1.6649,2.6138 3.4285,5.1619 6.4462,3.2242 1.5908,-1.0223 2.2221,-5.0679 0.9134,-5.8609 -1.1837,-0.7169 -0.5051,-2.9779 1.3169,-4.392 1.572,-1.2189 1.3149,-2.6926 1.8876,-1.9747 0.3716,0.466 1.5885,2.2342 1.9198,2.2386 0.4656,0.011 7.5809,3.65 8.7776,4.6301 0.2906,0.2372 -3.1081,4.7418 -4.5513,11.093 -1.0896,2.0356 -3.0832,1.7205 -1.753,4.2279 0.8468,1.3557 0.15,2.2004 -0.8825,2.8648 0.1299,-0.3815 -0.7859,-0.2074 -0.036,0.822 2.3831,3.2801 0.1216,4.0463 -4.3978,1.5847 z"
       id="path9844"
       inkscape:label="#nyeri"
       sodipodi:nodetypes="ccssscccssscscccccccc" />
    <path
       inkscape:connector-curvature="0"
       style="fill:#918b7d;fill-opacity:1;stroke-width:1.17907524"
       d="m 9666.3704,8039.1309 c -1.0347,-0.1563 -1.9684,-1.0694 -3.9584,-1.3662 -3.9595,-0.59 -7.906,-3.7183 -4.5002,-2.8801 0.8777,0.2158 2.5008,-0.021 3.8119,-0.5593 1.2564,-0.5143 3.4393,-0.7753 3.4857,-1.3166 1.1158,-1.6405 -0.5205,-4.6005 -0.1834,-6.1947 -1.1398,-1.9603 -0.9741,-2.2408 -1.7613,-4.6658 0,0 -1.4278,-2.764 -1.2159,-4.4254 0.071,-0.5404 0.1524,-0.2929 -0.2298,-0.9196 -0.4216,-0.6922 -0.8907,-2.0739 -1.1766,-2.7106 -1.1671,-2.6032 -2.8033,-6.3875 -2.8033,-6.5448 0,-0.1573 2.9319,2.8171 5.0885,4.5112 2.1567,1.6941 3.7751,3.314 3.594,3.5995 -0.1797,0.2856 -0.095,0.4576 0.1728,0.3823 0.5693,-0.1558 5.06,1.9323 7.7798,3.6168 3.8371,1.8231 6.9201,0.896 9.3827,-3.8016 l 0.9206,0.4636 c 0.5597,4.1536 0.5966,2.2854 1.8505,3.2008 0.4408,0.3222 -1.4789,1.3865 -1.8945,2.0919 -1.3504,2.2946 -1.6827,5.1933 -0.4633,5.6518 0.6479,0.2435 0.6847,0.5137 0.1585,1.1355 -0.4156,0.4915 -0.5326,1.7374 -0.2931,2.9903 0.4514,2.3542 -0.1369,2.3287 -0.6525,3.6207 -0.368,0.9195 -1.0718,0.2811 -1.435,0.2811 -0.9694,0 -2.5448,0.7902 -2.7854,1.173 -0.2918,0.4614 -0.6039,0.2608 -0.9265,-0.5946 -0.6395,-1.6951 -3.3178,-1.1089 -3.943,0.5492 -0.6323,1.3124 0.1488,0.3227 -2.5746,1.1606 -1.4742,0.4533 -2.5864,1.5481 -3.3201,1.8738 -1.3123,0.5828 -1.622,0.1737 -2.1281,-0.3228 z"
       id="path9254"
       inkscape:label="#embu"
       sodipodi:nodetypes="cscscccssssscccccsscscsscccssc" />
    <path
       inkscape:connector-curvature="0"
       style="fill:#9dc85e;fill-opacity:1;stroke-width:1.17907524"
       d="m 9674.3729,8019.3172 c -1.0312,-0.6377 -2.8519,-1.5937 -4.0464,-2.1246 -0.9634,-0.4282 -1.7507,-0.4661 -3.3368,-1.5584 -0.8169,-0.5624 -1.4123,-1.9069 -2.6044,-2.9394 -2.8675,-2.4845 -7.3071,-5.6578 -5.9067,-5.3699 1.1946,0.2459 4.0275,1.4394 9.6401,1.6027 4.2287,0.2206 4.0679,2.9849 7.3523,0.9703 4.1358,-2.6665 2.0233,0.057 4.5265,-1.8435 2.9151,-0.9649 3.5119,-1.6737 3.5487,-4.2148 0.024,-1.719 0.3084,-2.5105 0.8991,-2.5105 0.4751,0 0.8645,-0.2707 0.8645,-0.6012 0,-0.3306 0.4478,-0.6011 0.9957,-0.6011 0.5476,0 1.1431,-0.5409 1.3229,-1.2021 0.4168,-1.5364 2.1662,-1.543 3.6047,-0.014 1.0539,1.1205 1.2171,1.1326 2.8378,0.2111 1.6256,-0.9232 1.8233,-0.9069 3.581,0.2966 2.1566,0.5137 3.5594,2.3892 5.0279,3.0679 1.3717,0.6193 2.0363,0.6747 1.4992,1.3423 -1.8338,2.6867 -2.8521,1.9914 -3.4786,2.5438 -0.9932,0.8744 -1.3992,1.5299 -0.7906,2.747 -0.4465,0.7475 2.4329,2.9222 -3.3797,2.6489 -0.4585,-0.017 -2.0255,1.0589 -2.8877,1.3258 -0.6646,0.2063 -0.7719,0.2512 -1.9663,0.3356 -0.637,0.044 -2.1459,0.1154 -2.8854,0.4326 -0.8765,0.3753 -1.079,1.7081 -1.1766,3.4691 -0.071,1.3723 -0.024,2.0766 -0.793,1.7946 -0.5441,-0.2007 -1.1064,-0.3649 -1.2504,-0.3649 -0.1442,0 -0.2609,-0.6764 -0.2609,-1.5029 0,-1.8879 -1.5576,-1.9941 -2.5698,-0.1751 -1.915,3.4421 -5.0564,4.2809 -8.3671,2.2339 z"
       id="path9328"
       sodipodi:nodetypes="cssssccccsssccscccsccsssssssscc"
       inkscape:label="#tharakanithi" />
    <path
       inkscape:connector-curvature="0"
       style="fill:#facff3;stroke-width:1.17907524"
       d="m 9649.2019,8078.2566 c -0.4395,-0.011 -2.202,-1.9342 -3.9155,-4.2726 -1.715,-2.3385 -3.2988,-4.2543 -3.5203,-4.257 -0.2202,0 -0.4288,-1.0191 -0.144,-2.2579 -0.7455,-0.5059 -0.1704,-0.8858 -0.1656,-1.521 0,-1.1892 -0.1192,-1.7931 -0.8741,-2.5556 -2.1161,-2.121 -1.5956,-3.4489 1.3504,-3.4489 0.9873,0 1.7947,-0.2751 1.7947,-0.6111 0,-0.3362 0.5323,-0.6111 1.1838,-0.6111 2.2625,0 6.9213,-5.5167 6.9213,-8.1946 0,-2.4179 3.9262,-3.422 5.9815,-1.5296 l 1.5219,1.4018 1.834,-2.103 c 2.358,-2.7032 2.3317,-3.1515 -0.2978,-5.117 -1.199,-0.8974 -2.1816,-1.9103 -2.1816,-2.251 0,-0.3407 -0.8038,-1.2826 -1.7862,-2.0932 -1.3886,-1.1451 -1.7161,-1.8393 -1.4673,-3.113 l 0.3191,-1.6393 1.1694,1.5732 c 0.7932,1.0678 2.0163,1.7121 3.8048,2.0055 1.4506,0.2377 3.693,1.0172 4.9851,1.732 1.4778,0.8176 2.5187,1.0731 2.8055,0.6887 0.699,-0.9347 4.2645,-2.75 5.4007,-2.75 0.5561,0 0.9289,-1.1097 1.6029,-1.7186 1.0539,-0.9518 2.0423,-0.7954 2.621,0.6805 0.2881,0.7379 0.5919,0.6852 2.208,-0.1842 1.7886,-0.9622 2.6614,-0.6088 1.9207,0.5541 -0.6205,0.9744 -1.3074,2.8968 -0.7073,4.524 1.0216,2.769 0.8669,2.4233 0.1762,5.1947 -0.3954,1.5884 -1.8983,4.6868 -3.02,3.966 -3.6642,-2.3533 -10.663,-1.7231 -7.1475,0.6902 1.4635,1.0048 3.757,4.5235 5.1004,7.2704 0.5371,1.0991 1.5338,1.6805 2.6474,2.3271 1.0991,0.6375 1.1109,0.907 1.404,1.9779 0.1416,0.5186 0.3,0.9911 0.2082,1.4855 -0.107,0.5387 -0.6704,1.5539 -0.9276,1.902 -0.3358,0.4544 -0.096,0.2695 -0.9956,0.8002 -0.8418,0.4947 -1.4397,0.4172 -2.184,0.4197 -0.3953,0 -0.9954,0.2454 0.059,1.3399 1.3873,1.4476 1.1634,1.6 -0.374,1.0221 -0.349,-0.1314 0.119,0.846 -0.7861,0.9044 -0.58,0.037 -1.1956,-0.3401 -1.7421,-0.061 -0.3096,1.0469 -0.2703,1.1064 -0.6324,1.4892 -0.2048,0.2163 -0.7133,-0.2705 -1.0527,-0.5571 -0.6275,-0.5469 -1.0528,-1.7683 -1.6029,-2.161 -0.8837,-0.632 -0.6931,-0.6492 -1.709,-0.6738 -1.8886,-0.9438 -2.8138,-0.9681 -4.9633,-0.9892 -1.3659,-0.012 -2.6747,0.5024 -4.08,1.2438 l 0.2548,2.6782 c 2.9701,4.0408 -2.7246,5.0036 -4.393,2.6051 -1.0812,-1.6486 -1.6779,-2.5515 -2.7223,-2.0319 -0.8418,0.4193 -1.0455,2.2334 -0.9599,3.5903 0.036,0.6405 0.1371,2.2211 -0.9884,2.5649 -0.7561,0.3788 -0.9966,0.6454 -1.9292,0.073 z"
       id="path10098"
       inkscape:label="#machakos"
       sodipodi:nodetypes="csccssssssscssscscsccsssssssssssssssssscscscscscccssccc" />
    <path
       inkscape:connector-curvature="0"
       style="fill:#01a2a6;fill-opacity:1;stroke-width:1.17907524"
       d="m 9675.2936,8139.9194 c -0.1584,-0.7611 -0.4133,-1.9829 -0.5658,-2.7153 -0.188,-0.9077 -1.9423,-2.3597 -5.5136,-4.5633 -7.6489,-4.7198 -11.5168,-6.9596 -12.0194,-6.9596 -0.2452,0 -1.0312,-0.536 -1.7493,-1.1914 -0.7169,-0.655 -1.3039,-1.0442 -1.3039,-0.8644 0,0.1797 -1.0826,-0.2145 -2.4057,-0.8759 -1.3229,-0.6612 -2.7056,-1.0203 -3.0724,-0.7979 -0.3704,0.2245 -0.5037,0.1435 -0.2977,-0.182 0.2037,-0.3226 -0.2822,-0.9288 -1.08,-1.3468 -0.7967,-0.4184 -1.2826,-1.0244 -1.0801,-1.3471 0.2216,-0.3503 0.071,-0.4025 -0.3846,-0.1292 -0.4157,0.2516 -0.9266,0.2265 -1.135,-0.056 -0.2095,-0.282 -2.7948,-1.7369 -5.7458,-3.2329 -2.9511,-1.4959 -5.3006,-2.9983 -5.2231,-3.3386 0.084,-0.3504 -0.2846,-0.4582 -0.842,-0.2483 -0.6573,0.2468 -0.8431,0.1444 -0.5585,-0.3064 0.2608,-0.4144 0.1262,-0.5638 -0.3489,-0.3855 -0.4276,0.1602 -2.6545,-0.7904 -4.9492,-2.1126 -2.2948,-1.3222 -4.7539,-2.4424 -5.4638,-2.4893 -0.7096,-0.046 -1.1741,-0.2002 -1.03,-0.3409 0.262,-0.2581 -4.8206,-3.5422 -5.4839,-3.5422 -0.1953,0 -1.1444,-0.5502 -2.1091,-1.223 -0.9764,-0.6814 -2.1756,-1.0637 -2.7092,-0.8631 -0.8311,0.3124 -0.8502,0.2231 -0.1475,-0.6758 0.4453,-0.5697 0.5739,-0.8403 0.287,-0.6013 -0.2884,0.2388 -2.7617,-0.7616 -5.4982,-2.2235 -2.7354,-1.4618 -5.2089,-2.5164 -5.4947,-2.3431 -0.8158,0.4946 -0.2143,-6.6756 0.6491,-7.7197 0.6394,-0.774 0.6323,-0.8523 -0.036,-0.4557 -0.6623,0.3905 -0.7361,-0.062 -0.4003,-2.4541 0.2537,-1.8041 0.1775,-3.0746 -0.1952,-3.301 -0.4002,-0.2424 -0.3036,-1.369 0.2822,-3.3038 0.4895,-1.6148 0.723,-3.4495 0.5192,-4.0773 -0.2297,-0.7114 -0.095,-1.1413 0.3666,-1.1413 0.4051,0 0.5587,-0.173 0.3431,-0.3845 -0.2155,-0.2114 -0.1643,-0.6715 0.1073,-1.0226 0.8752,-1.107 1.1861,-3.2506 0.5287,-3.6491 -0.399,-0.2413 -0.4536,-0.1006 -0.1501,0.382 0.3168,0.5027 0.2489,0.6236 -0.1976,0.3528 -1.5947,-0.9657 -0.3859,-2.7696 6.6652,-9.9487 5.2385,-5.3336 5.7517,-6.1009 5.7517,-8.5959 0,-1.242 0.1454,-2.2584 0.3229,-2.2584 0.6526,0 3.3415,1.6365 3.6941,2.1738 0.2012,0.3057 1.8767,0.7522 2.6448,0.1774 0.7787,0.5411 -1.0003,2.2465 -0.892,3.0802 -1.2432,2.9613 -0.9908,3.8093 -0.1702,4.6087 0.6846,0.6675 1.7767,0.3158 3.5082,0.6515 2.5163,0.488 4.5908,0.4001 5.0862,1.0865 1.1015,1.5268 3.8987,2.829 6.0768,2.829 1.9638,0 4.1753,0.7015 5.3887,1.8274 1.4517,1.3457 1.7483,3.21 2.1518,4.0123 -0.4297,0.7722 0.193,0.5559 0.059,1.7059 2.1591,2.5149 2.3949,2.8962 3.4713,4.2958 1.0051,1.5661 0.7336,0.9277 1.834,2.5626 2.0304,2.0604 3.9596,2.0594 2.5198,3.2195 -0.487,1.1639 0.4847,2.0331 0.5193,3.1331 -0.3311,0.6715 0.1702,1.6234 1.7708,2.5058 0.7644,0.2732 1.3313,0.07 2.3782,0.9793 0.6943,0.3841 1.4992,1.3523 1.0313,2.095 -0.1716,0.2726 1.1837,0.9222 3.0127,1.4434 1.8291,0.5212 3.6309,1.4253 4.0024,2.0091 0.3718,0.5837 1.0314,0.9279 1.4649,0.765 0.4323,-0.163 0.787,-0.011 0.787,0.3504 0,0.3559 0.5372,0.6467 1.1921,0.6467 0.6561,0 1.1922,0.2102 1.1922,0.467 0,0.2568 0.9431,0.8012 2.0957,1.2098 1.153,0.4084 1.9674,0.9459 1.8114,1.1941 -0.1571,0.2485 0.7778,0.4022 2.0769,0.3418 2.627,-0.1224 2.7568,-0.011 1.4625,1.2584 -0.4954,0.485 -0.7468,1.1255 -0.5587,1.4234 0.3978,0.6313 -0.7693,1.8897 -2.2673,2.4461 -0.5741,0.213 -1.0432,0.6181 -1.0432,0.9003 0,0.4854 0.2573,0.789 4.3943,5.4317 0.4131,0.4636 0.9074,1.0116 1.4004,1.5655 0.8384,0.9413 0.8264,1.1827 1.9757,1.9661 1.5683,1.0681 3.2843,2.4571 2.995,2.9165 0.6097,0.807 0.8348,1.5161 1.2015,2.0974 0.9157,1.0907 0.9111,1.5246 1.5255,2.2728 1.0194,1.1875 1.5363,1.5934 1.878,2.5727 0.2417,0.8823 0.2489,1.5326 0.085,2.1103 -0.3406,3.1144 -0.674,3.0383 -1.1053,3.6295 -0.5347,2.3535 -0.4906,2.233 -0.7466,3.1612 -0.3037,1.9588 -0.4013,3.2776 -0.7551,4.5775 -0.5775,2.1227 -0.8597,1.3866 -0.9025,2.8026 -0.071,2.1715 0.1726,2.6562 -0.667,3.0876 -0.1905,-0.1156 -1.5732,-0.1303 -3.3916,-0.1292 -2.952,0.215 -2.5579,0.3572 -2.827,-0.9291 z"
       id="path9752"
       inkscape:label="#kajiado"
       sodipodi:nodetypes="cssscscccccccsccscsccsccscscscscscscccccssscccsscssccccccccccccssssccccssssscccccccsscccc" />
    <path
       inkscape:connector-curvature="0"
       style="fill:#fac8c9;stroke-width:1.17907524"
       d="m 9597.1364,8092.6384 c 0.3204,-0.5065 0.156,-0.6057 -0.5573,-0.3377 -0.555,0.2089 -0.8777,0.1708 -0.7169,-0.084 0.4286,-0.6802 -3.057,-2.5453 -3.8537,-2.0621 -0.4192,0.2536 -0.5192,0.1571 -0.2608,-0.2527 0.2502,-0.3964 -0.187,-0.934 -1.0861,-1.3353 -0.8264,-0.3696 -1.504,-0.933 -1.504,-1.2522 0,-0.3191 -0.1761,-0.4078 -0.3906,-0.1969 -0.349,0.3414 -5.3362,-2.1493 -6.0817,-3.0371 -0.6478,-0.7696 -3.6584,-1.7593 -4.255,-1.3983 -0.3595,0.2178 -0.4669,0.1174 -0.2464,-0.2313 0.2179,-0.345 -0.3907,-0.9538 -1.3803,-1.3836 -0.9729,-0.4218 -1.7683,-0.9937 -1.7683,-1.2705 0,-0.2768 -0.53,-0.3674 -1.1779,-0.2014 -0.6478,0.166 -1.0598,0.1144 -0.9145,-0.1157 0.3763,-0.5967 -3.0915,-2.4957 -3.7869,-2.0741 -0.3359,0.2032 -0.4287,-0.036 -0.2216,-0.567 0.1989,-0.5053 0.1286,-0.8628 -0.1534,-0.7945 -1.1481,0.2779 -3.7871,-1.4582 -3.4643,-2.28 0.2416,-0.6193 0.1298,-0.6893 -0.4192,-0.2629 -0.8752,0.679 -4.2657,-1.0852 -3.5429,-1.8432 0.2419,-0.254 -0.188,-0.141 -0.955,0.2508 -0.7668,0.392 -1.2468,0.4777 -1.0658,0.1906 0.181,-0.287 -1.7064,-1.6966 -4.1953,-3.1325 -2.7854,-1.6069 -4.4516,-2.9252 -4.3347,-3.429 0.1476,-0.6406 0.036,-0.6671 -0.5336,-0.1225 -0.6515,0.6274 -3.1736,-0.5152 -4.6586,-2.1102 -0.3704,-0.3992 -1.7603,-0.7695 -3.0605,-0.816 -0.5514,-0.019 -0.8813,-0.154 -0.7337,-0.2988 0.1478,-0.1445 -0.5979,-1.3008 -1.036,-1.9607 -0.437,-0.6597 -0.1702,-2.013 -1.0968,-3.4327 -0.9061,-1.3902 -0.973,-2.5967 -1.5887,-3.1425 -0.6143,-0.5455 -1.9636,-3.196 -2.1684,-4.2663 -0.2048,-1.0703 -0.6073,-1.0091 -0.7252,-2.3451 -0.187,-2.1329 0.362,-3.2047 3.3736,-3.5596 1.1195,-0.1318 2.4318,-0.3817 2.9164,-0.5554 2.62,-0.9376 10.6296,-2.7225 12.2159,-2.7225 3.8904,1.4793 3.426,2.4051 6.3949,3.7157 1.6838,0.6446 2.558,2.6748 4.6204,2.0635 0.3907,-0.3179 0.904,-0.3878 1.1409,-0.1553 0.2382,0.2326 0.6919,1.4627 1.0087,0.9074 0.6597,-1.1562 3.9775,-3.5498 4.7883,-3.0587 0.5182,-1.8427 2.2342,-2.4007 1.4613,-3.5116 -0.4048,-0.02 -0.1405,-0.3207 0.5884,-0.665 0.7276,-0.3441 1.3242,-0.9457 1.3242,-1.3365 0,-0.3909 0.6621,-1.136 1.4707,-1.6555 1.9374,-1.2447 1.8565,-2.0002 -0.2929,-2.735 -1.6946,-0.8828 -3.6335,-2.2575 -3.8395,-3.5244 -0.1356,-1.2032 0.1858,-1.5363 1.9853,-2.0641 4.7264,-1.3861 4.7956,-1.3895 4.7956,-0.2325 0,0.6005 0.6144,1.6577 1.3647,2.3491 l 1.3659,1.2574 1.2825,-1.3382 c 0.705,-0.7361 1.2825,-1.7439 1.2825,-2.2398 0,-0.4958 0.3883,-1.2178 0.8634,-1.6043 0.4752,-0.3864 0.8062,-0.9962 0.7361,-1.3548 -0.071,-0.3586 0.4204,-0.7349 1.092,-0.8364 0.6703,-0.1018 1.4646,-0.8349 1.7648,-1.6295 l 0.5454,-1.4447 1.9494,1.7598 c 1.0718,0.9679 2.3353,1.76 2.8069,1.76 1.2574,0 2.4126,2.7214 1.5243,3.5918 -0.5277,0.5175 -0.2335,-0.2987 -0.6896,-0.015 -1.0574,0.6555 -0.9301,-0.4432 -1.5564,-0.443 -0.8252,3e-4 -1.1266,0.5816 0.312,2.2405 1.4684,1.6926 1.7267,2.2197 3.232,1.2525 0.843,-0.5416 2.272,-1.1669 2.7592,-0.9835 1.5278,-0.8508 1.9065,-0.8354 3.0689,0.6984 0.4525,0.6325 0.9609,1.0137 1.1312,0.8473 1.0481,-1.0281 2.2806,2.7488 1.3505,4.1402 -0.8836,1.3217 -0.886,1.5588 -0.023,2.8436 0.5156,0.7706 0.7478,1.4014 0.5167,1.4014 0.8277,0.6327 2.0899,1.096 2.9831,1.3056 1.6123,-0.3019 3.9811,4.1236 4.2419,7.9232 0.1761,2.5611 -4.6421,9.2676 -6.3188,8.7961 -0.2822,-0.079 -0.5132,0.1984 -0.5132,0.617 0,0.4186 -0.5954,1.2835 -1.3231,1.9221 -4.0537,3.5542 -5.2242,5.7789 -4.0215,7.6419 0.3215,0.4966 0.2215,1.644 -0.2584,2.9761 -0.4288,1.1923 -0.6406,2.3044 -0.4704,2.4712 0.1703,0.1665 -0.095,1.5529 -0.5812,3.0802 -0.9264,2.8897 -1.0848,4.7959 -0.3988,4.7959 0.219,0 0.3738,1.1432 0.3429,2.5406 -0.036,1.3969 -0.2168,2.443 -0.4133,2.3244 -0.1953,-0.1186 -0.237,0.3964 -0.096,1.1441 0.1451,0.7481 -0.022,1.8873 -0.3752,2.5317 -0.4167,0.7642 -0.4346,1.2388 -0.048,1.3644 0.3251,0.1061 0.024,0.5354 -0.655,0.9543 -0.9276,0.5683 -1.1289,0.5795 -0.7919,0.044 z"
       id="path9466"
       inkscape:label="#narok"
       sodipodi:nodetypes="cccccsscsscssccccssscccsscsccsscsssscccccccsssccssscsscscscsssssssccsscccscsscsssscccccscc" />
    <path
       inkscape:connector-curvature="0"
       style="fill:#b9f4e8;stroke-width:1.17907524"
       d="m 9537.1719,8059.5764 c -8.5241,-4.6153 -10.6867,-5.7985 -15.6871,-8.5844 -2.9902,-1.6656 -5.5269,-3.2315 -5.6376,-3.4801 -0.1071,-0.2485 -0.587,-0.4516 -1.0574,-0.4516 -0.4704,0 -0.8563,-0.2821 -0.8563,-0.627 0,-0.3449 -0.2714,-0.4624 -0.6037,-0.2611 -0.3323,0.2012 -0.6037,0.084 -0.6037,-0.2612 0,-0.3448 0.2714,-0.627 0.6037,-0.627 0.3323,0 0.6037,-0.8692 0.6037,-1.9315 0,-1.3636 0.4394,-2.255 1.4934,-3.0305 1.579,-1.1622 1.2314,-3.3266 -0.5336,-3.3266 -2.0911,0 -2.2828,-1.7127 -0.2535,-2.2498 1.847,-0.4884 2.2709,-0.3189 5.1408,2.0533 1.8293,1.5109 3.2892,2.331 3.5154,1.9734 0.212,-0.3367 0.6085,-0.4775 0.8802,-0.313 0.2713,0.1645 0.8252,-0.093 1.2301,-0.5715 0.649,-0.766 0.8906,-0.7652 2.0148,0.011 0.7027,0.4824 1.5555,0.2959 1.7923,0.2959 0.461,0 0.7719,-1.4354 0.3739,-1.6021 -0.7252,0.2768 0.6751,-1.8005 1.379,-2.5595 0.7038,-0.7588 1.3827,-1.5323 1.6625,-2.3873 0.524,-1.603 2.6354,-2.1476 3.269,-1.5602 0.5108,0.4734 0.6418,1.5975 0.3262,3.3699 -0.318,1.79 -0.5276,4.7322 -0.3156,6.7151 0.2931,2.757 0.1691,3.7667 -0.5608,4.5577 -1.1146,1.2075 0.4263,6.6554 2.5638,9.0655 1.0646,1.2007 2.951,6.7405 2.4591,7.2227 -0.1071,0.1051 -1.5456,-0.5413 -3.1986,-1.4356 z"
       id="path9502"
       inkscape:label="#migori"
       sodipodi:nodetypes="cscsscssscscsscccscssssscsccc" />
    <path
       inkscape:connector-curvature="0"
       style="fill:#8c7b65;fill-opacity:1;stroke-width:1.17907524"
       d="m 9616.2615,8047.9953 c -4.3216,-0.8048 -3.0974,-2.2672 -5.2755,-5.5803 -1.0372,-1.2089 -1.7815,-0.8098 -2.9092,-1.2973 -1.3327,-0.5764 -4.124,-3.252 -2.7603,-4.737 1.3336,-1.1379 0.5595,-3.2933 -0.6944,-5.5091 -0.8372,1.8623 -1.9673,-0.8752 -2.6174,-1.2729 -1.6065,-0.6323 -0.4622,0.061 -2.8558,0.4081 -4.4157,2.3349 -3.5201,1.0308 -5.4612,-0.5252 -0.187,-0.4756 -1.0254,-1.471 -0.4847,-1.4275 0.6466,0.051 2.4568,1.2001 2.7557,0.7366 0.431,-0.6681 0.4571,-2.1117 -0.048,-3.3022 -0.4192,-0.9926 -1.9411,-1.453 -2.2126,-1.453 -0.8194,0 -2.2579,-1.3195 -4.4275,-3.6518 -1.1363,5.1741 -3.4739,2.5685 -3.5621,5.1979 -1.96,2.2224 -1.9409,2.7427 -2.7007,4.2194 -1.21,2.3547 -3.3309,0.1155 -3.9453,-2.8315 -0.2132,-1.0236 -1.4768,-3.5636 -2.8082,-5.6439 -1.33,-2.0804 -2.1638,-3.7827 -1.8504,-3.7827 0.3131,0 0.5691,-0.6816 0.5691,-1.5146 0,-1.3091 -0.2024,-1.4767 -1.4968,-1.234 -1.3089,0.2451 -3.3058,-1.4558 -2.5366,-2.1607 1.067,-0.979 4.9956,-1.3536 5.6136,-0.5354 1.2695,1.6778 4.916,-0.1074 4.916,-2.4066 0,-0.738 0.2666,-1.5035 0.5917,-1.7008 0.9195,-0.5564 -0.4478,-2.604 -1.7373,-2.604 -0.9528,0 -0.5906,-0.4372 -0.4489,-1.362 0.6084,-0.9001 3.2271,-1.1246 4.0595,0.3113 0.2608,0.4487 0.6287,1.3223 0.7752,2.0024 0.1633,0.7597 0.5145,2.8314 1.0576,2.8314 1.1134,0 1.2111,-1.2825 1.7196,-3.5756 0.1345,-0.6076 0.7099,-1.3001 0.9919,-1.2204 0.2811,0.08 1.048,-0.4981 1.7029,-1.2837 1.0087,-1.209 1.3349,-1.3125 2.1198,-0.6737 1.5862,1.2907 4.5538,-2.1619 2.5271,-5.0818 -0.3847,-0.5533 -1.048,-1.1142 -1.0065,-1.4611 0.1776,-1.4945 3.0023,1.0856 3.0023,1.3975 0,0.3119 1.2909,0.7534 2.4734,2.0514 3.1963,0.8328 2.3257,-0.3366 2.7366,-2.2035 0.2953,0 1.0599,-1.5376 1.285,-3.0113 0.2941,-1.9205 0.4192,-2.968 1.2097,-3.1706 0.6062,-0.1554 1.4876,-1.1416 1.4876,-1.4229 0,-0.9151 1.4646,0.216 1.866,1.2565 0.7645,1.7383 1.8529,2.0599 1.1277,4.8659 -0.6098,1.1162 -1.0015,3.8659 -0.9754,6.8093 0,0.7704 -0.3321,2.7229 -0.5466,2.5126 -1.5481,-1.518 -1.8744,1.0903 -1.1206,3.425 0.4657,1.4415 1.6423,0.9692 0.9384,2.2977 -0.8716,1.5429 -0.8073,2.0079 0.5192,2.432 0.8981,-0.055 1.8126,-0.093 2.633,0.1184 2.2199,1.2338 0.53,-0.3353 1.647,2.2067 0.6538,1.0492 1.5528,2.454 2.1579,4.5651 0.468,1.6271 0.5239,3.2344 0.5931,3.4731 0.07,0.2388 0.1607,0.6946 0.2012,1.013 0.036,0.3185 0.4085,0.579 0.8182,0.579 0.4083,0 1.0753,0.5208 1.4813,1.1576 0.405,0.6367 1.2671,1.1578 1.9136,1.1578 0.6991,0 1.2041,0.4102 1.2459,1.0129 0.036,0.5571 0.1713,1.7945 0.2965,2.7496 0.1238,0.9553 0.3809,3.495 0.5703,5.6441 0.1904,2.149 0.5704,3.9072 0.8455,3.9072 1.5219,0 1.5149,5.6041 0.036,7.8086 -1.7602,1.7257 -4.6016,1.6491 -6.0103,-0.511 z"
       id="path9996"
       inkscape:label="#nakuru"
       sodipodi:nodetypes="ccsccccccscsccssssssssscscsssssccsssccscsccccsccccscsscscsssccc" />
    <path
       inkscape:connector-curvature="0"
       style="fill:#acb299;fill-opacity:1;stroke-width:1.17907524"
       d="m 9555.3741,8040.6956 c -2.5032,-1.1678 -2.1732,-1.756 -0.5216,-3.896 0.6884,-0.8901 0.6301,-3.1707 0.3597,-4.7409 -0.9538,-5.5397 -0.4908,-13.7173 1.9066,-12.2648 0.4845,0.2937 0.5989,0.1983 0.3095,-0.2595 -0.6501,-1.0318 1.2564,-0.9109 2.3366,0.1482 1.0206,1.0003 3.0391,0.2369 3.0391,-1.1495 0,-0.8123 1.3217,-1.6032 2.6794,-1.6032 0.3609,0 0.4812,0.4457 0.2679,0.9901 -1.1895,3.0375 1.5754,5.3607 2.9261,2.4579 0.4,-0.8621 1.1669,-1.5673 1.7029,-1.5673 0.5368,0 1.6409,-0.6124 2.4531,-1.3608 0.8133,-0.7483 1.6481,-1.1589 1.7517,-1.0141 -0.059,0.5889 -0.6824,1.3603 -0.2882,1.9617 0.7906,1.2074 4.2752,7.3632 4.1001,8.2406 -0.1071,0.5111 -0.9742,0.6252 -3.438,1.1312 -1.7148,0.3523 -1.5005,0.2211 -3.0485,1.6336 1.2646,3.8986 4.8729,5.1901 4.4502,4.5925 3.4903,1.5482 -0.9705,2.1338 -1.4183,3.9402 -0.1226,0.4949 -1.1612,1.212 -2.4866,2.32 0.3717,0.3957 0.7836,0.3875 0.5015,0.7869 -2.1972,3.1218 -3.4799,2.8145 -6.2616,5.1129 -0.967,0.4205 -0.07,-0.8021 -1.4696,-0.4761 -1.1884,0.2778 -1.1349,1.0011 -4.5562,-1.948 -2.4377,-0.7596 -3.3486,-1.9872 -5.2958,-3.0356 z"
       id="path9858"
       sodipodi:nodetypes="cssssssssssscsssccscscscc"
       inkscape:label="#bomet" />
    <path
       inkscape:connector-curvature="0"
       style="fill:#facff3;stroke-width:1.17907524"
       d="m 9585.3613,8007.7916 c 0,-1.4898 -1.9556,-5.2796 -2.7332,-5.2957 -0.3847,-0.011 -1.3528,-0.6553 -2.1517,-1.4382 -0.7979,-0.7827 -1.971,-1.4232 -2.6057,-1.4232 -0.6348,0 -1.3219,-0.2673 -1.5278,-0.5943 -0.4359,-0.6915 0.8061,-2.3683 1.461,-1.9717 0.243,0.1473 0.6085,-0.7521 0.8122,-1.999 0.3454,-2.117 0.4979,-2.267 2.3055,-2.267 3.7108,0 5.9341,-7.9803 2.6973,-9.6784 -0.6394,-0.3352 -1.1621,-0.995 -1.1621,-1.4661 0,-0.4712 -0.5456,-1.9049 -1.2125,-3.1862 -1.5515,-2.9817 -1.841,-6.0036 -0.7764,-8.1156 0.4621,-0.9165 0.7109,-2.0695 0.5526,-2.5621 -0.686,-7.0481 -0.7335,-6.9679 1.2028,-13.1824 0.4478,-0.3646 0.8146,-1.0925 0.8146,-1.618 0,-0.5251 0.2822,-1.2316 0.6274,-1.5698 0.6026,-0.5913 0.9682,-6.8775 0.4608,-7.9272 -0.7656,-1.5832 0.5004,-7.0174 2.3068,-9.9041 0.686,-1.096 1.248,-2.6972 1.2493,-3.5584 0,-2.3775 0.4834,-1.0246 2.846,2.6657 2.8892,4.5141 9.4745,15.0063 11.1441,15.0125 1.2849,0 2.845,-0.4129 6.3389,5.1683 1.8006,2.8759 4.4645,3.6274 5.5922,5.5386 1.7496,0.5905 3.0654,1.6824 4.8029,2.8461 0.3214,0.2145 -1.1491,1.885 -2.0758,3.4346 -1.1169,2.1654 -2.8163,3.7263 -5.0515,5.2042 -1.5742,1.041 -2.1935,1.537 -1.8624,3.1555 -1.7291,6.3981 -1.6507,4.9008 -3.8465,9.8286 0.1071,0.7476 2.4459,3.4735 3.1794,4.7074 0.9469,1.592 0.7051,1.6201 -0.138,3.6703 -0.2776,0.1677 -0.3287,-0.7045 -0.9004,-1.3234 -1.3218,-0.8418 -2.0089,-1.639 -2.0089,-0.4195 0,0.4796 -0.9717,1.1808 -1.4362,1.3552 -0.4656,0.1751 -1.0158,1.4459 -1.229,2.8357 -0.2119,1.3851 -0.6157,2.6586 -0.8991,2.8297 -0.2821,0.1713 -0.5131,0.9368 -0.5131,1.7011 0,2.0325 -1.4805,1.5043 -5.222,-1.8632 -2.4342,-2.1913 -3.8071,-1.0623 -1.8542,1.5257 1.2063,1.5997 1.1075,2.1121 -0.8693,4.5322 -0.1073,0.1338 -0.5895,-0.2505 -1.0657,-0.8539 -0.8444,-1.0673 -0.904,-1.0546 -2.1948,0.4686 -0.7288,0.8611 -1.6374,1.5656 -2.0187,1.5656 -0.3822,0 -0.8537,0.7045 -1.0491,1.5657 -0.6799,2.9926 -0.9097,3.5582 -1.448,3.5582 -0.2977,0 -0.5417,-0.4285 -0.5417,-0.9521 z"
       id="path10048"
       inkscape:label="#baringo"
       sodipodi:nodetypes="sccsccsscsscccsccscscscccsccsccssccssssccssss" />
    <path
       inkscape:connector-curvature="0"
       style="fill:#acb299;fill-opacity:1;stroke-width:1.17907524"
       d="m 9613.3273,7957.1993 c -0.7859,-0.8207 -1.7244,-1.501 -2.0853,-1.5119 -0.3596,-0.011 -2.1113,-1.8919 -3.8905,-4.1798 -2.677,-3.4418 -3.5367,-4.1599 -4.9801,-4.1599 -1.8769,0 -5.4971,-4.8453 -12.9196,-17.292 -1.7459,-2.9274 -3.5989,-5.4712 -4.1167,-5.6532 -0.518,-0.1821 -2.177,-1.0206 -3.6847,-1.8637 -1.5075,-0.843 -4.1119,-1.8162 -5.7864,-2.1628 -2.8545,-0.5906 -5.1789,-1.9004 -5.1789,-2.9191 0,-0.2458 -0.8528,-1.392 -1.896,-2.547 -1.3028,-1.4415 -1.953,-2.8335 -2.0755,-4.4402 -0.096,-1.2872 -0.8885,-4.5468 -1.7577,-7.2438 -0.8693,-2.6969 -1.5803,-5.2 -1.5803,-5.5627 0,-0.3626 -0.7192,-1.5831 -1.5982,-2.7124 -1.2278,-1.5786 -1.672,-2.9718 -1.9196,-6.0275 -0.474,-5.861 -2.1067,-9.3183 -3.9298,-8.3178 -1.8852,1.0347 -2.2793,1.6659 -2.2902,3.6635 0,1.617 -0.1201,1.6884 -2.0706,1.3295 -2.1651,-0.3982 -2.8131,0.2146 -2.8131,2.6647 0,0.7561 -0.3001,1.0137 -0.9134,0.783 -0.5023,-0.1891 -0.9132,-0.6769 -0.9132,-1.0841 0,-0.4073 -0.549,-1.36 -1.2183,-2.1175 -0.6705,-0.7573 -1.2181,-1.8913 -1.2181,-2.52 0,-0.8507 -0.2967,-1.0511 -1.1565,-0.7837 -1.6159,0.5028 -3.8239,-3.1597 -4.3966,-7.2899 -0.4846,-3.5015 -2.7736,-6.3932 -4.5359,-5.7304 -1.7613,0.6623 -4.4183,-3.1245 -4.8314,-6.8832 -0.4072,-3.7139 -0.8717,-4.8805 -2.178,-5.4695 -3.107,-1.4008 -3.3165,-1.6593 -3.6846,-4.5498 -0.206,-1.6199 -0.8123,-3.7755 -1.348,-4.7904 -1.166,-2.2102 -0.9599,-5.7784 0.4214,-7.2738 1.3481,-1.4603 1.4363,-8.4497 0.1073,-8.4497 -0.4894,0 -1.435,-0.5738 -2.1007,-1.2748 -0.923,-0.9708 -1.6493,-1.1893 -3.0426,-0.9161 -1.4708,0.2884 -2.0614,0.07 -3.0117,-1.1137 -0.6502,-0.8098 -1.5995,-1.4724 -2.1102,-1.4724 -1.5111,0 -2.8736,-0.6818 -2.5115,-1.2566 0.1858,-0.2941 0.8693,-0.5347 1.5195,-0.5347 1.235,0 1.4266,-0.4719 0.8205,-2.0219 -0.2834,-0.7226 -0.9837,-0.8533 -3.1986,-0.5967 -1.56,0.1809 -2.5377,0.1052 -2.1733,-0.1685 1.4873,-1.1161 1.4457,-3.3289 -0.085,-4.5095 -1.2324,-0.9496 -1.3754,-1.3544 -0.8323,-2.3491 0.5119,-0.9382 0.4288,-1.4479 -0.3799,-2.3241 -0.574,-0.6215 -0.8681,-1.5528 -0.6586,-2.087 0.2394,-0.6118 -0.2679,-1.5966 -1.3862,-2.6927 l -1.7625,-1.7281 4.0479,-3.3645 c 2.2268,-1.8506 7.75,-6.908 12.2729,-11.2388 4.5228,-4.3308 14.9404,-13.6896 23.149,-20.7971 12.4386,-10.7699 15.3668,-13.6171 17.5784,-17.0884 l 2.6532,-4.1653 6.4841,-0.2295 c 4.1346,-0.1467 7.0368,0.02 8.0073,0.4646 0.8384,0.3822 2.5402,0.8749 3.7823,1.0952 1.2419,0.2204 3.0234,0.7922 3.9595,1.2704 0.936,0.4784 2.0246,0.8714 2.4188,0.8733 1.6255,0.011 2.5637,1.7386 1.997,3.6789 -0.4062,1.388 -0.2966,2.4078 0.4179,3.8844 0.7992,1.6488 0.8492,2.4699 0.2893,4.6512 -1.0024,3.9028 -0.8632,5.1549 1.0814,9.6708 0.9694,2.2513 1.94,5.4366 2.1555,7.0786 0.7729,5.8647 0.8919,13.5221 0.2346,15.1162 -0.3631,0.8816 -0.6121,4.4377 -0.5526,7.9022 0.096,5.8286 -0.011,6.5136 -1.5314,9.1707 -1.3849,2.4295 -1.6565,3.676 -1.7649,8.0984 -0.07,2.8748 -0.3501,5.5811 -0.6239,6.0143 -1.1337,1.7979 -0.3241,6.7855 1.317,8.1096 1.1861,0.9568 1.4671,1.5895 1.1468,2.5796 -0.3311,1.0216 -0.1428,1.3839 0.8479,1.6381 1.0932,0.2801 1.2731,0.7822 1.2731,3.5534 0,2.8236 0.1821,3.3089 1.4563,3.8777 0.8004,0.3577 1.7899,1.2628 2.1995,2.0114 0.7145,1.3089 1.5231,1.8271 4.9075,3.1444 1.6959,0.6599 1.9602,3.2152 0.9254,8.9469 l -0.4572,2.5379 2.2255,0 c 2.6354,0 4.5826,0.8946 4.5826,2.1062 0,0.4784 1.0277,1.3422 2.284,1.9195 2.608,1.1983 5.6327,6.2243 5.6376,9.3671 0,1.2328 0.6335,2.4937 1.929,3.8487 1.5565,1.6269 1.9389,2.5467 1.9888,4.7769 0.071,3.2913 0.7014,4.4584 2.1877,4.0775 0.7026,-0.1801 1.2002,0.1061 1.3849,0.7968 0.1572,0.5928 1.4838,1.6693 2.9462,2.3923 1.4612,0.723 2.7175,1.3625 2.7902,1.4208 0.6442,0.5165 -0.071,3.293 -1.3076,4.8275 -0.8003,0.9891 -1.8768,0.9009 -2.7605,1.2318 -2.2744,0.8512 -2.3898,2.8133 -2.7341,4.6834 -0.2179,1.1896 -1.036,1.8944 -1.3385,2.27 0.306,3.7762 -0.2643,4.3974 -0.9968,6.5795 0.2132,2.1801 0.4656,3.5617 -0.5038,5.3365 -2.2662,7.5406 -2.1792,4.4645 -4.1619,8.2258 -1.1945,2.2171 -1.3267,1.2771 -1.8363,0.4387 -1.4754,-0.4671 -1.0518,-0.6837 -3.4536,-0.1941 -1.105,1.1004 1.441,5.0998 2.4663,4.7141 3.7797,0.6804 3.8607,1.8394 3.0998,1.6408 -0.1369,0.9436 -0.6144,-1.8887 1.6291,2.0012 l -1.3718,1.0136 c -0.7538,0.5574 -0.9265,1.5227 -0.9729,2.1447 1.279,0.031 1.4956,0.7833 1.2169,1.2247 0.9992,0.8041 -0.711,-0.8969 -1.3314,3.0671 2.6223,2.333 1.4208,2.3192 1.5887,5.446 0.096,1.5597 -0.2978,3.4057 -0.1227,4.2466 0.5502,2.6536 -1.5743,3.9421 -3.3856,2.0529 z"
       id="path9786"
       inkscape:label="#turkana"
       sodipodi:nodetypes="ccssscsssscsscsscsscscscscsssssssssscscccssccscssssccccccscssscscsssccsccsscssscccccscsccccccccccccccccccc" />
    <path
       inkscape:connector-curvature="0"
       style="fill:#8c7b65;fill-opacity:1;stroke-width:1.17907524"
       d="m 9563.5089,7951.9102 c -2.2996,-1.0781 -2.2043,-0.6043 -2.1088,-1.056 -0.2527,0.3995 -1.0113,-0.1666 -2.2067,-0.7725 -1.2399,-0.6287 -2.7451,-0.8291 -4.3444,-0.5789 -2.1852,0.3419 -2.6033,0.1765 -3.8988,-1.5426 -1.2683,-1.6831 -1.7387,-1.88 -3.7334,-1.5627 -2.3102,0.3676 -2.5806,0.097 -2.3424,-2.3488 0.072,-0.7205 -0.07,-0.6812 -0.6039,0.159 -0.9943,1.5863 -2.1351,1.3812 -3.6748,-0.6608 -1.7375,-2.3028 -1.6137,-4.7195 0.2821,-5.5348 0.8039,-0.3456 1.4612,-1.133 1.4612,-1.75 0,-0.6169 0.2822,-1.1217 0.6289,-1.1217 0.3453,0 0.4693,-0.4075 0.2738,-0.9057 -0.4168,-1.0654 2.0197,-2.5471 3.1058,-1.8888 0.4072,0.2465 0.5584,0.1649 0.3394,-0.1822 -0.2179,-0.3458 0.3216,-1.6632 1.198,-2.9281 1.2707,-1.8315 1.598,-3.116 1.6101,-6.3102 0,-2.2059 0.2833,-5.1412 0.6097,-6.5229 0.4382,-1.852 0.3583,-2.9392 -0.3013,-4.136 -1.1718,-2.1215 -3.7905,-16.3477 -3.1868,-17.3061 0.274,-0.4341 0.1858,-0.5694 -0.2144,-0.3271 -0.9216,0.5582 -1.3967,-4.5713 -0.4917,-5.3074 0.4024,-0.3276 1.0895,-0.3161 1.6434,0.028 1.897,1.176 1.3158,-0.6724 1.8386,-2.055 l 0.6311,-1.7373 2.133,0.6655 c 2.615,0.8161 1.6028,-2.16 1.8184,-3.2005 0.2191,-1.0609 1.3456,-1.8222 2.6484,-2.1565 1.9602,0.4201 2.24,2.6571 2.3151,4.4898 0.7775,1.6018 0.5227,3.4334 0.6025,4.7686 0.085,1.4938 0.7074,3.0156 1.6088,3.9563 1.3564,1.4142 3.9215,8.5222 4.1407,11.4682 0.699,1.578 0.4491,3.4847 0.9775,4.96 1.3006,5.5166 2.002,3.2862 5.2827,9.2497 3.0415,0.8265 9.3186,1.6487 13.5378,5.3363 2.1256,2.2284 2.7355,2.1051 2.247,5.163 -0.4905,2.5389 -2.06,5.6456 -2.6662,5.2801 -0.2524,-0.1524 -0.5371,0.7541 -0.6312,2.0143 -0.649,3.0399 -0.9111,2.4524 -2.7498,5.5455 -3.0248,-0.055 -0.906,1.2185 -4.0548,1.2448 -1.3277,-0.1261 -2.3459,0.011 -2.2626,0.2917 0.1203,0.4173 -8.96,8.3859 -9.4506,8.2936 -0.072,-0.014 -0.9802,-0.4736 -2.0114,-1.0213 z"
       id="path9946"
       inkscape:label="#westpokot"
       sodipodi:nodetypes="ccssssscscssscsscssssscscssccssccccccccccccc" />
    <path
       inkscape:connector-curvature="0"
       style="fill:#9dc85e;fill-opacity:1;stroke-width:1.17907524"
       d="m 9665.5321,7973.199 c -0.2691,-0.427 -1.5303,-0.6437 -3.2118,-0.5521 l -2.77,0.1508 -2.3745,-3.9274 -2.3746,-3.9275 -2.3948,0.2732 c -1.6933,0.1932 -2.8806,-0.038 -4.0512,-0.7915 -1.5053,-0.9677 -1.816,-0.9861 -3.419,-0.2023 -0.9705,0.4743 -2.6793,0.9222 -3.7987,0.9956 -1.1195,0.074 -2.2116,0.3065 -2.4282,0.5186 -1.0303,1.0102 -2.3818,0.2319 -3.1106,-1.7918 -1.192,-3.3091 -3.5857,-5.399 -4.2906,-3.7459 -0.2205,0.5157 -8.9375,2.4398 -11.0548,2.4398 -0.7454,0 -1.2231,-0.2085 -1.0622,-0.4632 0.4074,-0.6456 -0.2384,-1.4203 -2.2032,-2.6474 l -1.685,-1.0519 1.2064,-1.2582 c 1.4242,-1.4864 1.2372,-9.9982 -0.2466,-11.1682 -1.0979,-0.8669 -0.4238,-3.1764 0.7943,-2.7181 0.7026,0.2641 0.8349,0.099 0.5335,-0.6682 -0.219,-0.5605 -0.3988,-1.2869 -0.3988,-1.6143 0,-0.3273 -0.3861,-0.4499 -0.8575,-0.2723 -1.2599,0.4739 -0.449,-1.2547 0.9277,-1.9767 1.978,-1.0378 -1.1469,-5.1442 -3.425,-4.5013 -1.0609,0.2998 -3.1592,-1.6104 -3.1592,-2.8768 0,-1.6906 1.7027,-2.391 2.6675,-1.0974 1.0598,1.421 1.6732,1.1968 2.9175,-1.0669 0.6134,-1.1174 1.3409,-2.0317 1.6148,-2.0317 0.2752,0 0.499,-0.3288 0.499,-0.7305 0,-0.4016 0.6358,-1.9037 1.4123,-3.3379 1.0742,-1.9844 1.354,-3.2571 1.1707,-5.323 -0.1321,-1.4932 0.036,-2.88 0.3644,-3.0821 0.3335,-0.2019 0.6062,-1.6423 0.6062,-3.2011 0,-1.5588 0.2321,-2.9744 0.5144,-3.1458 0.2834,-0.1714 0.6799,-1.3258 0.8823,-2.5654 0.3299,-2.0214 0.6421,-2.3564 3.0237,-3.2479 2.2317,-0.8354 2.7509,-1.3344 3.2593,-3.129 0.8908,-3.1427 0.8467,-3.2434 -2.0531,-4.6242 -1.479,-0.7044 -2.6649,-1.6752 -2.6649,-2.1817 0,-0.502 0.2155,-0.7821 0.4788,-0.6224 0.6822,0.4136 3.6665,-2.8302 3.6665,-3.9856 0,-2.5966 2.1149,-0.3357 3.6416,3.8934 0.8895,2.4623 2.3305,5.6714 3.2034,7.1312 1.1088,1.8536 1.6804,3.786 1.8947,6.405 0.2537,3.1059 0.4894,3.7502 1.3682,3.7502 0.5836,0 1.4611,0.3919 1.9494,0.8709 0.4884,0.4788 1.7757,0.8708 2.8593,0.8708 4.8467,0 10.0258,3.5512 11.1667,7.657 0.3501,1.2571 1.0635,2.2875 1.7268,2.4941 0.649,0.2019 3.2153,3.8142 6.0174,8.4692 5.6887,9.4524 5.6971,9.4604 7.7822,8.3998 0.8622,-0.4385 3.3273,-0.9822 5.4769,-1.2078 2.1494,-0.2256 4.2524,-0.7477 4.6741,-1.1601 1.9172,-1.8798 4.2097,1.5001 4.2097,6.2081 0,3.8427 0.1738,4.4859 1.7767,6.5384 0.9967,1.2779 1.809,3.0605 1.8505,4.0638 0.036,0.9831 0.2726,3.812 0.5144,6.2865 0.3466,3.557 1.5743,6.5226 1.0933,6.1416 -1.6267,-1.2905 -3.0855,-0.8179 -4.1466,0.1901 -1.6303,1.5492 -2.071,1.7165 -2.8509,1.0819 -0.78,-0.6341 -1.1421,-0.5 -2.3401,0.8657 -0.8466,0.9659 -2.0935,1.662 -3.0997,1.7299 -0.9254,0.062 -2.2175,0.1544 -2.8724,0.2044 -0.655,0.049 -1.8697,0.7078 -2.6996,1.4618 -2.046,1.8599 -4.0323,2.8446 -5.0029,2.48 -0.7169,0.3612 -1.5505,0.2898 -1.6981,0.3239 z"
       id="path9302-4"
       sodipodi:nodetypes="cscccscscsssscscsscsscssssssssccssssssscssssscsscssscsscsssssccsccc" />
    <path
       inkscape:connector-curvature="0"
       style="fill:#b5bb00;fill-opacity:1;stroke-width:1.17907524"
       d="m 9541.6078,7964.1755 c -0.2751,-0.8599 -0.4609,-2.0994 -0.4132,-2.7543 0.059,-0.8567 -0.1726,-1.1218 -0.8336,-0.9451 -0.8883,0.237 -4.9778,-4.3655 -4.9778,-5.6016 0,-0.2911 -0.6191,-1.0265 -1.3766,-1.6342 -1.4374,-1.1543 -1.8708,-2.4091 -0.6943,-2.0085 0.3763,0.1276 1.1325,-0.3506 1.6804,-1.0626 0.7253,-0.94 1.4397,-1.2425 2.608,-1.1035 1.0086,0.1199 1.4778,-0.026 1.2563,-0.3908 -0.2131,-0.3522 0,-0.4458 0.5287,-0.2372 0.4847,0.1898 1.454,-0.1119 2.1542,-0.6701 1.7007,-1.3555 3.5762,-1.9128 4.0121,-1.1925 0.194,0.3216 1.2682,0.5826 2.3854,0.5797 1.5933,0 2.3291,0.3614 3.4081,1.6917 1.204,1.4852 1.5815,1.6377 3.0272,1.2228 1.5243,-0.4378 2.7354,-0.222 4.3645,-0.011 1.8661,2.1656 2.9128,3.6759 5.7577,5.4421 1.7852,1.1085 3.6596,1.5499 3.6978,2.7359 0.023,0.8334 -1.5042,0.6494 -1.3268,1.492 0.287,1.3594 -0.2214,2.1059 -0.6501,2.618 -0.5765,0.6899 -2.7152,0.1051 -3.1879,0.1019 -1.3576,-0.9006 -2.2735,0.4471 -3.0117,-0.7478 -1.1027,-0.092 -2.3365,0.5892 -3.0844,1.6879 -1.1301,2.4825 -1.0467,0.7359 -1.9149,1.4466 -0.9656,-0.094 -2.6497,-0.829 -2.7438,-0.5479 -0.096,0.2928 1.3946,-2.1763 0.4478,-2.4395 -1.3384,-0.3723 -2.2768,-0.1181 -4.9539,1.3412 -5.0243,2.7398 -5.5697,2.8268 -6.1592,0.9826 z"
       id="path9560"
       sodipodi:nodetypes="csssssssscsccsscssssccccccscc"
       inkscape:label="#transzoia" />
    <path
       inkscape:connector-curvature="0"
       style="fill:#b2a3a1;fill-opacity:1;stroke-width:1.17907524"
       d="m 9531.2915,7980.602 c -0.6003,-0.6304 -0.9074,-0.6435 -1.6137,-0.069 -0.7085,0.5768 -0.9943,0.5557 -1.5266,-0.112 -0.4061,-0.5096 -1.3839,-0.753 -2.5758,-0.6411 -1.2349,0.1155 -1.79,-0.03 -1.5505,-0.4099 0.2047,-0.3244 0.048,-1.1641 -0.343,-1.8657 -1.1349,-2.0265 -1.1039,-2.9806 0.1405,-4.2902 0.6395,-0.673 1.1075,-1.6606 1.0408,-2.1946 -0.07,-0.5339 0.084,-1.4243 0.324,-1.9784 0.4453,-1.0079 0.095,-1.7399 -0.8908,-1.8718 -0.2893,-0.038 -0.7705,-0.1018 -1.0706,-0.1406 -0.3013,-0.038 0.07,-0.7236 0.8265,-1.5225 1.9303,-2.0416 3.3891,-5.0356 4.2896,-8.801 0.7334,-3.0726 1.0776,-3.4836 2.7376,-3.2723 0.3941,0.049 1.1897,-0.6685 1.822,-0.6759 0.811,-0.011 0.8015,0.7088 1.8315,1.3991 0.7944,0.5334 0.8217,2.8303 2.6735,4.2781 1.7316,1.3533 2.5425,2.5674 2.8771,2.4967 0.3358,-0.072 0.2763,0.3176 0.3835,0.8428 0.9729,4.766 1.8851,4.717 6.0339,2.3431 3.2298,-1.8483 3.8597,-1.9497 4.4349,-2.0947 1.1528,-0.2917 2.1935,0.1439 1.4385,1.25 -0.9443,1.3843 -0.4238,1.1979 0.5133,1.3595 1.2112,0.2083 2.2673,0.1748 2.2673,0.5385 1.2125,-0.3548 0.2716,0.312 1.0946,2.2097 3.363,3.0741 -0.5657,3.6563 -0.5657,3.6563 -1.5566,0.8988 -2.0495,0.019 -4.2847,1.7452 -0.9467,-0.05 -1.9876,0.463 -2.9807,1.0313 -1.7959,1.0282 -1.8138,1.0262 -3.5214,-0.3822 -1.9386,-1.5981 -2.4115,-1.7335 -2.4115,-0.6895 0,2.5377 -9.9353,9.3919 -11.3941,7.861 z"
       id="path9474"
       inkscape:label="#bungoman"
       sodipodi:nodetypes="ssccccssccccscssscsssssccsccsss" />
    <path
       inkscape:connector-curvature="0"
       style="fill:#facff3;stroke-width:1.17907524"
       d="m 9570.3017,7997.2675 c -0.5134,-0.1335 -2.0461,-2.4558 -2.4068,-3.312 -1.5326,-3.1056 -1.1063,-2.2136 -0.7551,-3.9388 0.5134,-0.6229 0.5492,-1.0473 -1.1801,-1.7593 -1.3801,-0.5682 -1.3778,-1.8577 -3.5654,-5.4642 -1.8613,-1.8058 -1.5135,-2.2013 -2.1698,-2.3631 -0.5239,-0.1292 -1.2646,-0.5354 -1.0717,-1.6792 0.6132,-3.6245 -0.6372,-2.7884 -4.3478,-2.8198 -1.4768,-0.012 -4.08,0.039 -5.8495,0.1724 -2.7617,0.2062 -3.0844,0.5674 -3.1963,-0.034 -0.1906,-0.3343 1.4112,-1.2252 3.332,-2.1101 2.4555,-1.1309 5.5458,-2.3599 5.6638,-2.3818 0.2107,-0.039 1.4909,-0.3995 2.845,-0.8005 l 0.7382,-1.7973 -1.1051,-1.2748 c -2.5008,-2.8851 0.3037,-5.6697 2.3936,-5.4278 1.41,0.1631 1.2314,0.1342 2.7199,0.3158 1.8972,0.2316 2.27,0.6358 2.9211,0.4728 1.372,-0.3439 1.9805,-1.3587 1.8471,-2.6751 0.5764,-1.1437 0.8134,0.3902 2.3925,-0.027 1.3693,-0.3089 0.8336,0.9673 0.8574,1.1647 0.023,0.1974 0.4264,1.2253 0.4264,1.2253 3.1248,0.4396 3.2653,0.1515 3.17,2.5281 -0.084,2.1235 -0.1655,2.2144 -1.9721,2.2144 -2.7747,-0.1335 1.0635,3.0097 0.6609,3.6325 0.2263,0.6489 -0.375,3.6887 -0.2501,4.921 l 0.1584,2.9492 c -0.036,-0.7024 0.9051,2.0491 0.9908,4.3399 0.023,0.5495 0.2657,1.4721 0.3227,2.3706 0.2739,4.2622 1.5254,3.9538 2.7176,4.3316 1.0515,0.121 1.5911,1.6418 1.8779,2.4264 0.4514,1.2319 -0.107,1.4185 -0.144,1.7992 -0.036,0.3805 -0.3776,2.2935 -0.7573,2.2935 -0.3811,0 -0.8491,0.6318 -1.8638,2.0959 -0.6263,0.9036 -1.947,0.5311 -4.0394,0.657 z"
       id="path10038"
       inkscape:label="#uasingishu"
       sodipodi:nodetypes="cccscsssscscscsssscccsscccssscscsscc" />
    <path
       id="path9952"
       style="fill:#28d8c1;fill-opacity:1;stroke-width:1.17907524"
       d="m 9513.5204,7980.7824 c -2.445,-1.94 0.6549,-7.0932 4.2703,-7.1008 0.5479,-8e-4 1.2349,-0.6203 1.5279,-1.376 0.2929,-0.7556 0.7919,-1.374 1.1076,-1.374 0.3166,0 0.9705,-0.991 0.9705,-1.7288 0,-1.7307 0.7216,-2.1312 2.9568,-1.6394 0.9944,0.2189 1.098,0.8925 0.7122,1.0234 -0.3847,0.1311 -0.3847,2.2793 -0.3847,2.9753 0,0.696 -0.693,0.502 -1.1538,1.3677 -0.9729,1.8299 -1.0838,3.592 -0.2765,4.3844 0.4146,0.4062 0.7396,1.9498 0.267,2.5561 -1.7019,2.1838 -1.279,1.2712 -2.3699,2.1232 -0.5799,0.4524 -1.2683,-0.867 -1.2683,-1.1692 0,-0.3023 -0.2524,-0.5497 -0.5609,-0.5497 -0.3084,0 -0.5609,0.3091 -0.5609,0.687 0,0.9994 -3.9215,0.8653 -5.2373,-0.1792 z m -6.8381,17.589 c -0.6335,-1.2006 -0.7204,-1.8887 -0.3035,-2.382 0.3238,-0.3815 0.7098,-1.6287 0.8597,-2.7711 0.3668,-2.814 0.8396,-4.1503 1.4648,-4.1503 0.2882,0 0.5228,-0.3099 0.5228,-0.6888 0,-0.8273 3.8942,-8.4241 4.7587,-8.4241 0.3357,0 0.4144,-1.5132 0.4144,-1.8333 0,-0.3299 6.3926,0.1829 6.789,0.4278 0.942,0.5813 -0.036,3.1519 0.3239,2.585 0.5097,-0.8081 0.3216,1.3976 2.009,1.724 0.8217,0.1594 0.4132,1.588 0.1812,2.0876 -0.5551,1.1939 -2.6784,2.1223 -3.4715,1.6062 -1.3814,-0.8999 -1.8089,-0.3828 -3.5344,0.6109 -0.8336,0.4805 -1.3446,0.9391 -1.9971,0.4085 -0.9729,-0.792 -1.7493,0.6997 -2.4948,2.5321 -0.4157,1.0223 -0.7289,2.2231 -0.6181,3.3456 0.048,0.4919 -0.4287,1.9589 -0.8681,2.1241 -0.4394,0.1652 -1.1064,1.4009 -1.4815,2.9354 -0.7895,3.224 -1.3146,2.2114 -2.5545,-0.1376 z"
       inkscape:connector-curvature="0"
       sodipodi:nodetypes="scsssssssssssssssssssssssssssssssss"
       inkscape:label="#busia" />
    <path
       inkscape:connector-curvature="0"
       style="fill:#fac8c9;stroke-width:1.17907524"
       d="m 9527.7797,7995.9446 c -0.9624,0.1415 0.9943,-1.4398 0.3108,-1.6098 -0.6491,-0.1611 -1.7328,0.79 -2.1698,0.4057 -0.6693,-0.5868 1.1968,-0.9913 0.9146,-2.0059 -0.1798,-0.6481 -2.4282,0.4888 -2.6365,-0.2663 -0.1858,-0.6779 -1.1742,-4.1636 -1.2588,-4.9776 -0.1691,-1.6406 1.3575,-2.8841 1.4469,-3.7281 0.095,-0.8985 -1.2564,-1.3538 -1.903,-1.7048 -0.3014,0 -0.1428,-0.4356 0.3513,-0.9683 0.9051,-0.9751 1.0361,-1.7892 2.8795,-1.042 0.3048,0.1234 1.2683,-0.018 1.722,0.3488 0.3583,0.2911 1.1682,0.2814 1.1349,0.9025 -0.023,0.4852 1.8695,-1.208 2.1733,-0.6843 0.4383,0.7571 0.6096,0.6529 1.3422,0.5635 0.5489,-0.066 1.3789,-0.7691 1.898,-0.7691 0.5205,0 2.339,-0.7333 4.3955,-2.4424 2.0364,-1.6924 2.9296,-2.5264 3.1642,-2.5345 0.2334,-0.011 0.4251,-0.2744 0.4251,-0.5915 0,-0.3173 0.8694,-1.9137 1.2552,-2.3166 0.3251,-0.34 2.278,1.2293 3.0651,2.2305 0.3229,0.4103 -1.0501,0.9877 -0.7238,1.5346 2.1471,3.597 2.8698,3.5797 3.3963,5.9202 -0.4586,5.7314 0.9133,6.9084 0.2536,7.1902 -0.9038,0.386 -2.0901,1.1461 -3.5655,1.3441 -1.965,0.2638 -2.4329,0.6483 -4.9837,1.8359 -2.752,0.7397 -5.9912,1.5836 -9.2494,1.7895 -0.2978,0.018 -0.35,1.2464 -0.6347,1.1863 z"
       id="path9368"
       sodipodi:nodetypes="csssssscsssssssscsssscsscscc"
       inkscape:label="#kakamega" />
    <path
       inkscape:connector-curvature="0"
       style="fill:#b2a3a1;fill-opacity:1;stroke-width:1.17907524"
       d="m 9519.9641,8017.1431 c -0.6241,-0.6722 -1.1647,-1.9748 -1.1993,-2.8949 -0.047,-1.2494 -0.4168,-1.7218 -1.4647,-1.8666 -1.2695,-0.1756 -1.6922,-0.7766 -1.4719,-2.0943 0.048,-0.2573 -0.5848,-0.3507 -1.3944,-0.2078 -2.0365,0.3597 -4.0752,-1.8023 -2.2365,-2.3707 2.3686,-0.7319 1.3861,-4.0347 -1.0861,-3.6522 -1.6946,0.2622 -1.9601,0.15 -1.6303,-0.6876 0.3049,-0.7727 0.1073,-0.9291 -0.8455,-0.6854 -1.2205,0.3109 -1.2218,0.2826 -0.1071,-1.8512 0.6239,-1.1918 1.1348,-2.6417 1.1348,-3.222 0,-0.5803 0.4204,-1.2843 0.9337,-1.5643 0.5252,-0.2861 1.0479,-1.6489 1.192,-3.1092 0.2775,-2.7981 1.8816,-6.4276 2.6687,-5.1885 0.3228,0.5096 1.2612,0.4597 2.5437,-0.3786 1.3468,-0.8811 2.0114,-1.8297 3.4761,-0.3022 l 2.009,-0.5203 0.4,1.7686 0.4395,1.7726 c 0.9538,3.0086 0.07,2.2614 1.4373,2.6958 2.2187,0.7083 2.9345,-1.252 0.7396,1.1423 -0.2203,0.7856 -0.023,1.4066 2.0602,0.7366 0.3727,-0.1198 -0.4966,0.9611 -0.4442,1.2389 0.7039,0.3548 1.2694,0.015 2.6105,0.2194 1.6074,-0.8373 2.2743,-0.4437 2.5627,1.0216 0.8275,4.2122 -1.1814,3.7354 -2.9272,5.3129 -2.0615,1.862 -4.3979,2.7161 -3.4988,4.3517 0.9789,1.782 0.3596,3.0371 -1.5005,3.0371 -2.1614,0 -2.6937,1.2069 -1.0895,2.4711 1.7922,1.4135 1.6956,2.436 -0.417,4.4062 -1.7576,1.6404 -1.7636,1.641 -2.8972,0.421 z"
       id="path9486"
       inkscape:label="#siaya"
       sodipodi:nodetypes="ccsccscscsscsssscccscsccsscscsc" />
    <path
       id="path9488"
       style="fill:#b2a3a1;fill-opacity:1;stroke-width:1.17907524"
       d="m 9515.8209,8024.3289 c -0.6977,-2.7263 2.2783,-4.4041 4.5432,-2.5615 0.4883,0.3971 1.1289,0.5757 1.4231,0.3969 0.2953,-0.1785 0.6967,0.087 0.8932,0.5877 0.3275,0.8342 0.4512,0.8292 1.4518,-0.057 1.1943,-1.0597 2.3077,-0.7464 2.3077,0.6494 16.8138,-0.8652 -5.5125,9.8501 -8.1787,1.5929 -1.2409,0.082 -1.9626,1.1369 -2.4403,-0.6073 z m 4.0835,11.9633 c -2.6734,-2.3058 -2.9126,-2.3519 -6.6437,-1.2734 -1.9769,0.5719 -2.9891,-4.7273 -1.2599,-6.6003 0.7775,-0.842 0.8253,-1.1494 0.2311,-1.5093 -0.5288,-0.3204 -0.2454,-0.6229 0.9729,-1.0394 1.9993,-0.683 8.0895,-2.7044 8.18,-0.7332 -4.5015,4.8042 6.452,-0.021 14.3913,-0.1901 2.5737,0.065 -3.2449,3.1311 -2.9532,2.4929 0.2823,-0.6197 0.3989,-0.5089 0.4275,0.4097 -2.0173,0.2444 -2.8843,-4.4671 -1.2074,-5.594 0.9704,-0.6177 0.8621,-0.9181 -0.3979,-0.9487 -1.6956,-0.04 -3.4676,-1.9624 -3.0961,-3.3574 0.3572,-1.3389 3.4332,-1.938 6.3031,-1.228 2.4461,0.6048 5.7888,0.5409 6.8891,-0.1313 0.4776,-0.2919 1.2029,0.032 2.0293,0.9065 0.7895,0.8346 2.2471,1.5115 3.7701,1.7501 4.4432,0.6964 4.4622,0.6691 -3.0735,4.3985 -1.8588,0.9204 -3.7512,1.7266 -4.2026,1.7918 -0.4524,0.065 -1.0621,0.5399 -1.3563,1.0555 -0.2953,0.5155 -0.8908,0.9372 -1.3255,0.9372 -0.4334,0 -0.9479,0.488 -1.1408,1.0845 -0.2095,0.6484 -0.9718,1.1551 -1.8934,1.2592 -1.0633,0.1204 -1.8209,0.7205 -2.4389,1.9328 -0.4943,0.9669 -1.329,2.181 -1.8566,2.6981 -0.5274,0.517 -1.0323,1.4153 -0.9586,1.9863 0.2537,1.9723 -0.8134,1.7945 -2.5675,1.0111 -1.005,-0.4488 -1.6397,-0.4844 -1.8982,-0.1062 -1.0015,1.4713 -2.3829,1.1902 -4.9243,-1.0031 z"
       inkscape:connector-curvature="0"
       sodipodi:nodetypes="ssssscccscssssccsccsssssscsssssssssscc"
       inkscape:label="#homabay" />
    <path
       id="path9970"
       style="fill:#8c7b65;fill-opacity:1;stroke-width:1.17907524"
       d="m 9562.7824,8010.1818 c -1.2099,-1.1108 -2.5352,-1.7267 -3.9119,-1.8177 -1.1468,-0.077 -2.0838,-0.3407 -2.0838,-0.5894 0,-0.8757 -1.0768,-0.4394 -1.3388,0.5422 0.492,1.5885 -3.4795,3.5966 -5.8923,3.7284 -2.5138,0.052 -0.1606,0.1721 -0.5954,-0.1028 -1.448,-0.9156 -4.4336,-2.678 -4.8336,-1.4731 -0.2846,0.8578 -3.4655,-2.181 -3.5095,-3.581 -0.059,-2.0582 -2.0804,-2.2297 -4.9028,-0.4172 -0.7038,0.4515 -1.8695,0.9094 -2.5913,1.0173 -0.7216,0.1073 -1.7803,0.5897 -2.3543,1.071 -1.797,1.5086 -5.6827,-1.4871 -4.4539,-3.4351 0.7551,-1.1975 3.5799,-2.9042 5.2708,-1.7717 1.0218,0.685 2.0197,0.2861 2.0197,-0.9257 0,-0.4687 0.262,-0.6938 0.5811,-0.5 1.6613,1.0061 6.3735,1.2427 6.3735,0.3199 0,-0.5546 0.4727,-0.9295 1.173,-0.9295 0.6765,0 1.06,0.2894 0.9062,0.6833 -0.387,0.9885 0.9968,1.3453 5.2125,1.3453 2.0458,0 3.719,0.2267 3.719,0.5037 0,1.0437 3.4571,1.0278 4.4252,-0.019 0.5204,-0.5634 1.2373,-0.8389 1.5934,-0.6118 0.355,0.2269 1.2945,0.4125 2.0852,0.4125 1.0681,0 1.5159,0.3658 1.7385,1.4203 0.3454,1.6373 2.7855,4.5444 3.8145,4.5444 0.3835,0 0.8335,0.5113 1.0003,1.1361 0.456,1.7116 -1.2873,1.4337 -3.4453,-0.5493 z m -14.3426,8.6524 c -0.2346,-0.2298 -1.2217,-0.4573 -2.1959,-0.5053 -2.1103,-0.1038 -3.1571,-1.3455 -1.9066,-2.2639 1.1349,-0.8333 1.0981,-2.85 -0.059,-3.2852 -0.505,-0.1898 -0.8086,-0.6646 -0.6741,-1.0549 0.1346,-0.3904 -0.1072,-0.9654 -0.5418,-1.2777 -0.5371,-0.3886 0.5906,-0.4784 3.5714,-0.2842 4.0513,0.2642 4.362,0.2045 4.4238,-0.852 0.059,-0.9568 0.1074,-0.9793 0.3324,-0.142 0.1524,0.5712 0.8145,0.994 1.5551,0.994 1.6412,0 1.453,3.3487 -0.2749,4.881 -0.605,0.5366 -1.1004,1.7031 -1.1004,2.5918 0,1.6043 -1.953,2.352 -3.1307,1.1984 z"
       inkscape:connector-curvature="0"
       sodipodi:nodetypes="cssccsssssssssssssssssssssccsssssssssssss"
       inkscape:label="#kisumu" />
    <path
       inkscape:connector-curvature="0"
       style="fill:#b5bb00;fill-opacity:1;stroke-width:1.17907524"
       d="m 9546.556,7990.7772 c -1.4232,0.6278 -2.1413,0.3124 -3.3964,0.7701 -1.7911,1.1672 -2.5507,1.6644 -4.0835,1.7129 -0.4561,0.1392 -1.3528,0.174 -2.2174,0.5572 -0.4942,0.2194 -0.7419,-0.1658 -2.3116,0.4198 -1.1525,0.4299 -1.929,0.1212 -3.1449,0.8015 -0.6858,0.3841 0.3453,0.048 0.767,0.9098 0.2583,0.5253 0.7882,2.405 0.4775,3.2106 -0.1073,0.2759 -0.3561,1.5086 -0.9313,1.9275 -0.7203,0.5243 -2.1673,1.6055 -1.8851,1.6653 1.51,0.3185 1.4576,0.2695 2.5854,0.5668 0.2691,0.073 0.5073,-0.3964 0.7264,-0.7394 0.6965,-1.0946 1.3944,-0.8175 2.7389,-0.3871 0.8361,0.2673 3.5882,1.2299 4.3348,-0.2453 0.3251,-0.6422 2.808,-0.6847 3.2605,-1.1963 0.5382,-0.6105 0.4097,-2.4237 1.0612,-3.6212 0.7776,-1.4293 1.0061,-1.7306 2.0065,-2.5526 0.6884,-0.6755 1.0824,-1.8877 1.7327,-2.4212 2.8127,-3.4828 1.3885,-2.6385 -1.7207,-1.3784 z"
       id="path9484"
       sodipodi:nodetypes="cccsssssssssssssccc"
       inkscape:label="#vihiga" />
    <path
       inkscape:connector-curvature="0"
       style="fill:#facff3;stroke-width:1.17907524"
       d="m 9561.8012,8005.3914 c -0.5966,-1.5931 -0.2964,-1.926 -2.4698,-2.1369 -0.7919,-0.078 -1.7482,-0.3481 -2.758,-0.1545 -1.4065,1.2688 -3.0475,1.8066 -4.074,1.1656 -0.9692,-0.6044 -0.6358,-1.1433 -2.2566,-1.0232 -1.9185,0.1424 -4.2871,-0.298 -5.5113,-0.4433 -1.11,0.035 -2.2829,0.065 -1.9554,-0.7707 0.212,-0.5392 0.5812,-0.9804 0.8229,-0.9804 0.2405,0 0.5025,-0.9236 0.5811,-2.0526 0.095,-1.3043 0.7288,-2.5221 1.7481,-3.3395 0.8824,-0.7078 1.6042,-1.6317 1.6042,-2.0528 0,-0.4212 0.2905,-0.7659 0.6442,-0.7659 0.3549,0 0.6456,-0.4025 0.6456,-0.8947 0,-0.492 0.331,-1.003 0.7369,-1.1355 0.5479,-0.179 0.5349,-0.8418 -0.048,-2.5811 -0.4334,-1.2872 -0.6013,-3.1713 -0.3739,-4.1867 0.4275,-1.9071 -0.6729,-4.7276 -2.5676,-6.5846 -1.3897,-1.3628 2.9463,-1.1003 5.2994,-1.2865 1.2182,-0.096 6.2364,-0.02 6.5365,0.023 1.3732,0.2008 -0.2405,3.0628 1.0742,4.1062 1.7744,1.4089 1.7101,1.5717 3.2868,3.4735 4.3347,9.3965 5.5267,1.8306 3.4749,8.144 1.2647,1.3211 2.2342,3.3076 2.1531,3.8465 1.1837,1.5462 0.9766,1.4906 1.9626,2.304 2.0256,1.6708 1.1038,1.8202 1.08,2.9822 0,0.3395 -0.5216,0.359 -0.6706,1.8321 l -0.3559,3.5363 -3.9,0.027 c -3.4166,0.024 -4.6241,0.028 -4.7063,-1.0513 z"
       id="path10042"
       inkscape:label="#nandi"
       sodipodi:nodetypes="cscssccsssssscsssssscccsssccc" />
    <path
       id="path9310"
       style="fill:#9dc85e;fill-opacity:1;stroke-width:1.17907524"
       d="m 9575.2162,7989.2378 c -0.9752,-0.3668 -0.8848,-1.2471 -0.9765,-2.5551 -0.1369,-1.9594 -0.036,-3.9585 -1.1039,-6.9978 -0.761,-2.1766 -0.4215,-3.5544 -0.5502,-4.281 -0.1463,-0.8391 0.1358,-1.8607 0.5121,-3.6084 0.3025,-1.4092 -2.2483,-2.9347 -1.9567,-3.7635 0.1919,-0.5449 1.865,-0.3952 2.339,-0.5504 1.2122,-0.3959 0.6956,-2.5301 0.6609,-3.6341 -0.048,-1.4207 -1.9411,-0.9037 -2.6412,-1.1586 -0.8671,-0.316 -0.6671,-1.5671 -0.7859,-1.8756 -0.2313,-0.7142 -0.7327,-0.9344 -1.615,-0.7083 -1.1265,0.2887 -1.2313,0.1409 -0.8788,-1.2369 0.35,-1.3666 0.1452,-1.6694 -1.6196,-2.3924 -2.2077,-0.9043 -6.476,-4.3347 -6.476,-5.2054 0,-0.2992 1.0243,-0.033 2.2747,0.5933 4.2489,2.1249 2.7115,1.3686 9.6305,-3.8916 2.4674,-1.8767 2.3983,-3.3945 3.9368,-3.3945 1.1648,0 2.8439,0.4446 2.8439,0.1182 0,-0.2173 1.179,-1.7021 2.4603,-1.5894 0.5895,0.05 0.9158,-0.8426 1.2122,-1.3149 0.5551,-0.8822 0.7778,-1.62 0.8253,-1.3205 0.4323,2.7669 0.8968,4.1413 0.7919,5.6956 -0.1798,2.6674 -0.3596,4.2457 -0.6441,4.8259 -1.129,2.3019 -0.161,2.3179 -1.6197,3.7433 -0.3702,1.1584 -0.2811,1.3289 -0.7907,2.2869 -0.5097,0.9579 -0.036,1.2086 -0.7919,3.256 -0.048,3.2161 0.8396,5.8193 0.2572,8.6748 -0.362,1.7766 -1.2909,3.665 -0.9967,5.6181 0.2595,1.7264 2.0935,5.681 2.0935,5.681 0.4905,1.6426 1.4457,2.7983 2.8533,4.2751 0.8431,0.8837 0.1619,1.4313 0.1465,1.8436 -0.181,4.8021 -1.8054,5.2219 -3.0772,5.5028 -4.792,1.0587 -1.6649,-1.0681 -6.314,-2.6362 z"
       inkscape:connector-curvature="0"
       inkscape:label="#elgeyomarakwet"
       sodipodi:nodetypes="cssssssssccsssssssssssscccssssssc" />
    <path
       id="path9988"
       style="fill:#28d8c1;fill-opacity:1;stroke-width:1.17907524"
       d="m 9546.1664,8028.8499 c 0.536,-2.0459 1.0613,-1.4318 0.4122,-2.9163 -0.4027,-0.9185 -0.6825,-1.5135 -1.1196,-2.0776 -0.4869,-0.6306 2.4629,-1.4527 4.0574,-2.3365 3.8191,-2.1163 5.1731,-2.9918 5.3064,-0.429 0.023,0.5029 -0.2656,2.436 -0.1965,3.0972 0.095,0.8969 -0.084,5.1075 0.084,5.7855 0,0.299 1.1801,4.3181 -0.1333,6.5217 -1.2756,2.1376 -1.6255,3.6034 -2.3698,3.7066 -1.3707,-1.539 -0.7992,-2.1102 -1.9233,-3.3517 -0.9206,-1.0178 -0.9324,-1.2838 -1.8102,-2.0232 -1.042,-0.8787 -3.9165,-2.5781 -4.0763,-3.3326 -0.107,-0.5169 0.6265,-0.3746 1.7757,-2.6441 z"
       inkscape:connector-curvature="0"
       sodipodi:nodetypes="cssssscscsssc"
       inkscape:label="#nyamira" />
    <path
       id="path5878"
       style="fill:#01a2a6;fill-opacity:1;stroke-width:1.17907524"
       d="m 9536.592,8030.1828 c -0.3323,0.5461 -0.3905,-0.7413 0.1191,-1.6068 0.5656,-0.9598 1.3445,-1.3985 3.1021,-2.5436 0.936,-0.6094 1.7102,-0.7956 2.6272,-1.1854 1.8386,-0.7821 3.4843,-1.3801 2.7865,-0.8313 2.3162,3.7098 0.4979,5.4883 -1.4684,7.7606 0.4407,0.1238 2.383,1.3952 4.2384,3.0908 2.1995,2.0092 2.5068,2.0554 3.4819,5.2326 0.1073,0.3604 -0.8835,0.5242 -1.5957,0.566 -0.5954,0.035 -1.5577,0.1 -4.9372,0.9357 -2.1948,0.9346 -3.1402,0.692 -4.1216,1.1067 -2.0053,0.8476 -3.1487,0.4152 -3.9679,0.9785 -1.0528,0.7225 -0.4777,0.1637 -0.7895,-5.5405 -0.096,-1.774 0.4405,-5.7087 0.5251,-7.9633 z"
       inkscape:connector-curvature="0"
       sodipodi:nodetypes="csssccssscsssc"
       inkscape:label="#kisii" />
    <path
       inkscape:connector-curvature="0"
       style="fill:#fac8c9;stroke-width:1.17907524"
       d="m 9630.7651,8035.594 c -1.4876,-0.7186 -2.1616,-1.4175 -1.9925,-2.7099 0.1538,-1.1745 -0.8907,-2.2665 -0.1546,-4.5028 0.1654,-0.1517 -0.048,-1.0044 0.3072,-1.6403 0.1928,-0.3423 0.6621,-0.9796 1.1765,-1.0911 0.7967,-0.1723 1.7053,0.2932 1.878,0.2499 1.2302,-0.306 2.0114,0.6989 2.3757,0.9195 0.5109,0.3094 2.5139,0.9234 4.2727,0.2605 1.7019,-0.5056 2.5902,-0.911 3.4644,-0.6935 3.6178,0.8991 2.9593,1.6669 6.0828,2.4527 1.7197,0.4328 5.4113,0.3734 4.3002,1.4147 1.7458,2.3457 1.0741,3.147 2.8582,3.9912 1.223,0.5787 -0.5967,1.6862 -0.187,2.9272 0.6238,1.89 2.4971,2.4491 2.5246,3.115 0.048,1.0985 2.8915,2.8663 4.5204,4.7156 1.2456,1.4141 -1.5326,3.6219 -2.8234,4.4019 -0.5849,0.3534 -3.6428,-2.8093 -4.7553,-2.8356 -2.5805,-0.061 -5.4148,0.5743 -6.3233,-0.3016 -2.3365,-0.8522 -3.1142,-0.3113 -4.0644,-1.3237 -1.8684,-0.9553 -1.9519,-0.9149 -3.2033,-2.4047 -2.6451,-2.1186 -1.6685,-1.4706 -4.3361,-3.1875 z"
       id="path9404"
       sodipodi:nodetypes="cscsssscsscssssssccccc"
       inkscape:label="#muranga" />
    <path
       id="path9640"
       style="fill:#b5bb00;fill-opacity:1;stroke-width:1.17907524"
       d="m 9650.869,8019.1942 c 0.8932,-0.336 1.5957,-1.6515 1.8031,-3.4052 0.107,-0.8763 1.0704,-3.1824 2.7043,-6.7229 1.2969,-2.8079 1.9067,-3.1715 2.1972,-1.309 0.071,0.4901 0.8432,2.3104 1.7029,4.045 1.0158,1.7843 1.5338,3.856 2.3508,5.6475 0.2917,0.4568 0.3405,1.1293 0.107,1.4948 0.7254,1.6085 1.9091,4.5042 2.5796,7.1103 1.1122,4.3217 1.2123,5.5294 0.8383,6.5592 -0.3644,1.0021 -1.6352,0.7053 -2.4854,1.1814 -1.2586,0.705 -3.7404,1.1582 -5.2968,0.8275 -1.3052,-0.2772 -1.5374,-0.5312 -2.4616,-0.7216 -0.5811,-0.1197 -0.5395,-1.021 -1.7492,-3.1635 -0.1775,-0.3158 -0.2025,-0.935 -0.6456,-1.201 -0.6026,-0.3621 -1.9529,-0.3482 -2.078,-0.8272 -0.2489,-0.9546 0.024,-1.5286 -1.1432,-3.5093 -0.3799,-0.6438 0.5846,-0.3036 0.8716,-0.6715 0.4823,-0.6184 0.4907,-1.5294 0.5395,-2.0578 -0.8003,-1.3601 -1.4922,-2.5499 0.1619,-3.2767 z"
       inkscape:connector-curvature="0"
       sodipodi:nodetypes="cssscccsssssssssscc"
       inkscape:label="#kirinyaga" />
    <path
       inkscape:connector-curvature="0"
       style="fill:#b5bb00;fill-opacity:1;stroke-width:1.17907524"
       d="m 9625.4812,8058.2918 c -0.2108,-0.2061 -1.6053,-0.4642 -3.0987,-0.5733 -3.6427,-0.2664 -3.9704,-0.7572 -2.8771,-4.3185 1.079,-3.514 2.4592,-4.0947 3.9597,-6.1233 0.5513,-2.5178 6.6831,7.8654 3.7297,5.3543 0,-1.2129 -2.9652,-3.7153 -3.6452,-2.6364 -0.3406,0.5401 0.011,-3.3863 0.3036,-6.5904 0.1477,-1.6631 -1.5124,-2.9926 -1.5124,-3.4511 0,-0.6588 0.792,-0.6329 1.129,-2.2292 0.4251,-2.0094 1.841,-3.2997 2.4722,-3.8135 0.9469,-0.7708 1.3135,-0.6824 2.851,0.6883 0.9692,0.8651 3.1545,2.2703 4.8551,3.1231 1.6993,0.8527 4.0883,2.4453 5.3065,3.5393 3.2534,2.9204 5.9589,4.6999 7.1463,4.6999 0.5751,0 1.5827,0.3284 2.2376,0.7298 0.9241,0.5657 1.1194,0.3837 3.3368,0.3349 2.1555,-0.047 3.0367,-0.6147 4.1167,0.2249 -1.2479,0.7816 -3.3438,0.2705 -4.2918,2.9867 0.387,2.9808 -2.8509,6.5032 -4.3716,4.7558 -0.9621,-1.1062 -4.1264,-1.6267 -3.4595,-0.569 0.1893,0.3002 -0.6371,0.4536 -1.8351,0.3413 -1.6625,-0.1561 -2.1328,-0.4708 -1.9863,-1.328 0.2786,-1.6222 -1.4446,-2.0123 -3.3844,-0.766 -0.9205,0.5906 -2.1519,0.8937 -2.7378,0.6734 -0.6383,-0.2401 -1.9245,0.2425 -3.2105,1.204 -1.1815,0.8825 -2.4579,1.6046 -2.8402,1.6046 -0.3811,0 -0.6932,0.413 -0.6932,0.918 0,1.0378 -0.9217,1.7876 -1.5004,1.2205 z"
       id="path9724"
       sodipodi:nodetypes="cssccssssssssscsccssssscssscc"
       inkscape:label="#kiambu" />
    <path
       inkscape:connector-curvature="0"
       style="fill:#e5fabc;stroke-width:1.17907524"
       d="m 9640.4907,8064.8373 c -0.9396,-1.2613 -1.0027,-1.169 -1.8506,-1.8648 -0.8931,-0.7329 0.1799,0.1422 -0.7431,-0.3569 -0.6205,-0.3357 -0.8692,-0.5827 -1.5635,-0.5931 -1.2267,-0.018 -1.9971,-0.3853 -2.8106,-0.4007 -0.8609,-0.016 -0.3952,0.2068 -2.1363,-0.3289 -2.621,-0.806 -2.9772,-1.9222 -4.2418,-2.7353 -0.5919,-0.3807 0.085,-1.1557 0.3024,-1.7395 0.3072,-0.8374 2.8272,-1.8494 3.8238,-2.3576 0.8183,-0.4168 1.2863,-0.8657 1.7959,-0.9035 0.6026,-0.044 1.2434,0.3423 2.2901,0 0.3584,-0.1178 -0.5966,0.3131 1.7887,-0.9986 0.7513,-0.4132 1.5647,-0.5979 1.7063,-0.1981 0.1799,0.5056 0.5765,0.196 0.6277,0.545 0.2679,1.8282 0.9527,2.0226 3.0022,2.0836 0.7596,-0.081 1.1087,-0.024 1.3684,-0.8232 0.1511,-0.464 0.8216,-0.1133 1.3787,0.1178 0.2728,0.1132 0.5038,0.046 0.9814,0.332 0.5573,0.3332 1.3885,1.063 1.9376,0.9445 0.8848,-0.1906 0.4585,0.7744 -0.4062,1.2458 -0.7871,0.4291 -2.3221,1.4612 -2.009,1.4612 0.6549,0 -1.2372,0.119 -2.503,1.1037 -0.8313,0.6466 -1.6399,0.3623 -2.9654,0.5424 -1.8124,1.1899 -0.9609,2.2002 -0.2262,3.2096 0.5311,0.7305 0.9967,0.7016 1.1194,1.3504 0.1322,0.7039 -0.036,0.7696 -0.048,1.9046 z"
       id="path9864"
       sodipodi:nodetypes="cssssssssssssscssssssscsscc"
       inkscape:label="#nairobi" />
    <path
       id="path9980"
       style="fill:#28d8c1;fill-opacity:1;stroke-width:1.17907524"
       d="m 9610.437,8012.6754 c -3.6118,0.1086 -4.1799,-0.1636 -2.9187,-1.3986 0.5108,-0.5011 0.437,-1.0255 -0.2965,-2.1229 -1.2648,-1.8927 -1.3219,-4.4893 -0.085,-4.0251 0.512,0.1926 0.9051,0 0.9312,-0.4526 0.1751,-3.0336 1.1229,-5.1248 2.359,-5.2032 0.6276,-0.039 1.4077,-0.1375 1.7327,-0.2172 0.3253,-0.079 0.9611,-0.1775 1.4137,-0.2173 0.4525,-0.039 1.2479,-1.115 1.7684,-2.3894 1.1241,-2.756 2.2839,-2.9433 3.6976,-0.5971 0.7883,1.3083 1.3433,1.6448 2.3174,1.4052 1.8363,-0.4518 2.452,1.9801 0.7895,3.1215 -1.9673,1.3513 -1.2967,3.8461 1.0944,4.0722 0.7538,0.2937 5.0517,0.626 2.9022,4.7074 -0.892,1.6954 -2.5485,3.9294 -2.2401,4.9492 1.2683,4.1959 1.6565,5.1682 2.0435,6.3877 0.9861,3.0985 1.4361,5.6507 1.4767,6.145 0.6918,4.8733 0.6789,8.3578 0.8407,6.7387 0.059,-0.612 -0.9539,-0.9423 -1.9042,-0.5121 -0.8335,0.3778 -1.6826,1.2259 -2.0459,1.9586 -0.6775,1.3699 -0.9431,2.5643 -1.76,3.6525 -0.9027,1.2013 -0.2239,0.4373 -0.8218,-3.1913 -1.0871,-6.5987 -0.2488,-7.5523 -1.2216,-7.9982 -0.917,-0.4203 -2.314,-0.6627 -2.838,-1.3827 -1.0574,-1.4561 -1.5611,-1.233 -2.1602,-1.1802 -0.786,-5.9848 -2.4043,-8.0352 -3.1365,-10.1857 -0.5004,-1.4672 -0.8743,-1.6356 -1.9365,-2.0644 z"
       inkscape:connector-curvature="0"
       sodipodi:nodetypes="csssccscsssscssscssssssscscc"
       inkscape:label="#nyandarua" />
  </g>
</svg>
